HighlandCode.ufo
<glyph name="ampersand" format="1">
  <advance width="1228"/>
  <unicode hex="0026"/>
  <outline>
    <contour>
      <point x="401" y="1269"/>
      <point x="264" y="1116"/>
      <point x="264" y="920" type="curve" smooth="yes"/>
      <point x="264" y="798"/>
      <point x="309" y="711"/>
      <point x="386" y="626" type="curve" smooth="yes"/>
      <point x="954" y="4" type="line" smooth="yes"/>
      <point x="980" y="-24"/>
      <point x="1006" y="-24"/>
      <point x="1049" y="0" type="curve" smooth="yes"/>
      <point x="1097" y="27"/>
      <point x="1104" y="56"/>
      <point x="1073" y="90" type="curve" smooth="yes"/>
      <point x="517" y="699" type="line" smooth="yes"/>
      <point x="454" y="769"/>
      <point x="418" y="832"/>
      <point x="418" y="920" type="curve" smooth="yes"/>
      <point x="418" y="1028"/>
      <point x="491" y="1121"/>
      <point x="617" y="1121" type="curve" smooth="yes"/>
      <point x="701" y="1121"/>
      <point x="778" y="1095"/>
      <point x="846" y="1050" type="curve" smooth="yes"/>
      <point x="875" y="1031"/>
      <point x="906" y="1031"/>
      <point x="933" y="1081" type="curve" smooth="yes"/>
      <point x="960" y="1132"/>
      <point x="951" y="1160"/>
      <point x="915" y="1182" type="curve" smooth="yes"/>
      <point x="829" y="1236"/>
      <point x="729" y="1269"/>
      <point x="618" y="1269" type="curve" smooth="yes"/>
    </contour>
    <contour>
      <point x="284" y="625"/>
      <point x="157" y="510"/>
      <point x="157" y="320" type="curve" smooth="yes"/>
      <point x="157" y="136"/>
      <point x="288" y="-22"/>
      <point x="516" y="-22" type="curve" smooth="yes"/>
      <point x="793" y="-22"/>
      <point x="957" y="256"/>
      <point x="1053" y="591" type="curve" smooth="yes"/>
      <point x="1066" y="637"/>
      <point x="1058" y="664"/>
      <point x="998" y="673" type="curve" smooth="yes"/>
      <point x="944" y="681"/>
      <point x="921" y="673"/>
      <point x="908" y="628" type="curve" smooth="yes"/>
      <point x="838" y="369"/>
      <point x="719" y="126"/>
      <point x="516" y="126" type="curve" smooth="yes"/>
      <point x="396" y="126"/>
      <point x="311" y="204"/>
      <point x="311" y="320" type="curve" smooth="yes"/>
      <point x="311" y="446"/>
      <point x="389" y="523"/>
      <point x="543" y="615" type="curve"/>
      <point x="448" y="721" type="line"/>
    </contour>
  </outline>
</glyph>
<glyph name="plus" format="1">
  <advance width="1228"/>
  <unicode hex="002B"/>
  <outline>
    <contour>
      <point x="233" y="654" type="line" smooth="yes"/>
      <point x="188" y="654"/>
      <point x="170" y="634"/>
      <point x="170" y="582" type="curve" smooth="yes"/>
      <point x="170" y="530"/>
      <point x="188" y="510"/>
      <point x="233" y="510" type="curve" smooth="yes"/>
      <point x="995" y="510" type="line" smooth="yes"/>
      <point x="1040" y="510"/>
      <point x="1058" y="530"/>
      <point x="1058" y="582" type="curve" smooth="yes"/>
      <point x="1058" y="634"/>
      <point x="1040" y="654"/>
      <point x="995" y="654" type="curve" smooth="yes"/>
    </contour>
    <contour>
      <point x="562" y="1026"/>
      <point x="542" y="1008"/>
      <point x="542" y="963" type="curve" smooth="yes"/>
      <point x="542" y="201" type="line" smooth="yes"/>
      <point x="542" y="156"/>
      <point x="562" y="138"/>
      <point x="614" y="138" type="curve" smooth="yes"/>
      <point x="666" y="138"/>
      <point x="686" y="156"/>
      <point x="686" y="201" type="curve" smooth="yes"/>
      <point x="686" y="963" type="line" smooth="yes"/>
      <point x="686" y="1008"/>
      <point x="666" y="1026"/>
      <point x="614" y="1026" type="curve" smooth="yes"/>
    </contour>
  </outline>
</glyph>
<glyph name="hyphen" format="1">
  <advance width="1228"/>
  <unicode hex="002D"/>
  <outline>
    <contour>
      <point x="233" y="654" type="line" smooth="yes"/>
      <point x="188" y="654"/>
      <point x="170" y="634"/>
      <point x="170" y="582" type="curve" smooth="yes"/>
      <point x="170" y="530"/>
      <point x="188" y="510"/>
      <point x="233" y="510" type="curve" smooth="yes"/>
      <point x="995" y="510" type="line" smooth="yes"/>
      <point x="1040" y="510"/>
      <point x="1058" y="530"/>
      <point x="1058" y="582" type="curve" smooth="yes"/>
      <point x="1058" y="634"/>
      <point x="1040" y="654"/>
      <point x="995" y="654" type="curve" smooth="yes"/>
    </contour>
  </outline>
</glyph>
<glyph name="zero" format="1">
  <advance width="1228"/>
  <unicode hex="0030"/>
  <outline>
    <contour>
      <point x="354" y="1209"/>
      <point x="190" y="963"/>
      <point x="190" y="593" type="curve" smooth="yes"/>
      <point x="190" y="223"/>
      <point x="354" y="-22"/>
      <point x="614" y="-22" type="curve" smooth="yes"/>
      <point x="874" y="-22"/>
      <point x="1038" y="223"/>
      <point x="1038" y="593" type="curve" smooth="yes"/>
      <point x="1038" y="963"/>
      <point x="874" y="1209"/>
      <point x="614" y="1209" type="curve" smooth="yes"/>
    </contour>
    <contour>
      <point x="303" y="349" type="line"/>
      <point x="373" y="219" type="line"/>
      <point x="918" y="829" type="line"/>
      <point x="859" y="971" type="line"/>
    </contour>
    <contour>
      <point x="771" y="1061"/>
      <point x="884" y="891"/>
      <point x="884" y="593" type="curve" smooth="yes"/>
      <point x="884" y="295"/>
      <point x="771" y="126"/>
      <point x="614" y="126" type="curve" smooth="yes"/>
      <point x="457" y="126"/>
      <point x="344" y="295"/>
      <point x="344" y="593" type="curve" smooth="yes"/>
      <point x="344" y="891"/>
      <point x="457" y="1061"/>
      <point x="614" y="1061" type="curve" smooth="yes"/>
    </contour>
  </outline>
</glyph>
<glyph name="two" format="1">
  <advance width="1228"/>
  <unicode hex="0032"/>
  <outline>
    <contour>
      <point x="471" y="1209"/>
      <point x="342" y="1166"/>
      <point x="241" y="1095" type="curve" smooth="yes"/>
      <point x="209" y="1072"/>
      <point x="200" y="1042"/>
      <point x="228" y="996" type="curve" smooth="yes"/>
      <point x="257" y="950"/>
      <point x="291" y="946"/>
      <point x="320" y="967" type="curve" smooth="yes"/>
      <point x="403" y="1026"/>
      <point x="502" y="1061"/>
      <point x="591" y="1061" type="curve" smooth="yes"/>
      <point x="739" y="1061"/>
      <point x="819" y="981"/>
      <point x="819" y="859" type="curve" smooth="yes"/>
      <point x="819" y="760"/>
      <point x="769" y="687"/>
      <point x="652" y="568" type="curve" smooth="yes"/>
      <point x="212" y="122" type="line" smooth="yes"/>
      <point x="202" y="111"/>
      <point x="197" y="94"/>
      <point x="197" y="68" type="curve" smooth="yes"/>
      <point x="197" y="18"/>
      <point x="215" y="0"/>
      <point x="260" y="0" type="curve" smooth="yes"/>
      <point x="433" y="0" type="line"/>
      <point x="433" y="136" type="line"/>
      <point x="769" y="477" type="line" smooth="yes"/>
      <point x="898" y="608"/>
      <point x="973" y="714"/>
      <point x="973" y="859" type="curve" smooth="yes"/>
      <point x="973" y="1080"/>
      <point x="823" y="1209"/>
      <point x="590" y="1209" type="curve" smooth="yes"/>
    </contour>
    <contour>
      <point x="349" y="144" type="line"/>
      <point x="349" y="0" type="line"/>
      <point x="954" y="0" type="line" smooth="yes"/>
      <point x="999" y="0"/>
      <point x="1017" y="20"/>
      <point x="1017" y="72" type="curve" smooth="yes"/>
      <point x="1017" y="124"/>
      <point x="999" y="144"/>
      <point x="954" y="144" type="curve" smooth="yes"/>
    </contour>
  </outline>
</glyph>
<glyph name="three" format="1">
  <advance width="1228"/>
  <unicode hex="0033"/>
  <outline>
    <contour>
      <point x="466" y="1209"/>
      <point x="354" y="1176"/>
      <point x="247" y="1113" type="curve" smooth="yes"/>
      <point x="214" y="1093"/>
      <point x="203" y="1063"/>
      <point x="229" y="1014" type="curve" smooth="yes"/>
      <point x="255" y="967"/>
      <point x="287" y="963"/>
      <point x="317" y="981" type="curve" smooth="yes"/>
      <point x="406" y="1035"/>
      <point x="494" y="1061"/>
      <point x="581" y="1061" type="curve" smooth="yes"/>
      <point x="726" y="1061"/>
      <point x="807" y="991"/>
      <point x="807" y="879" type="curve" smooth="yes"/>
      <point x="807" y="757"/>
      <point x="728" y="691"/>
      <point x="575" y="691" type="curve" smooth="yes"/>
      <point x="520" y="691" type="line" smooth="yes"/>
      <point x="475" y="691"/>
      <point x="457" y="673"/>
      <point x="457" y="623" type="curve" smooth="yes"/>
      <point x="457" y="573"/>
      <point x="475" y="555"/>
      <point x="520" y="555" type="curve" smooth="yes"/>
      <point x="593" y="555" type="line" smooth="yes"/>
      <point x="748" y="555"/>
      <point x="844" y="484"/>
      <point x="844" y="345" type="curve" smooth="yes"/>
      <point x="844" y="213"/>
      <point x="757" y="126"/>
      <point x="588" y="126" type="curve" smooth="yes"/>
      <point x="482" y="126"/>
      <point x="375" y="168"/>
      <point x="290" y="232" type="curve" smooth="yes"/>
      <point x="261" y="254"/>
      <point x="227" y="249"/>
      <point x="198" y="203" type="curve" smooth="yes"/>
      <point x="170" y="157"/>
      <point x="179" y="127"/>
      <point x="211" y="104" type="curve"/>
      <point x="315" y="28"/>
      <point x="455" y="-22"/>
      <point x="588" y="-22" type="curve" smooth="yes"/>
      <point x="850" y="-22"/>
      <point x="998" y="128"/>
      <point x="998" y="345" type="curve" smooth="yes"/>
      <point x="998" y="484"/>
      <point x="926" y="582"/>
      <point x="808" y="631" type="curve"/>
      <point x="901" y="679"/>
      <point x="961" y="760"/>
      <point x="961" y="879" type="curve" smooth="yes"/>
      <point x="961" y="1080"/>
      <point x="811" y="1209"/>
      <point x="580" y="1209" type="curve" smooth="yes"/>
    </contour>
  </outline>
</glyph>
<glyph name="question" format="1">
  <advance width="1228"/>
  <unicode hex="003F"/>
  <outline>
    <contour>
      <point x="503" y="1269"/>
      <point x="398" y="1244"/>
      <point x="300" y="1191" type="curve" smooth="yes"/>
      <point x="263" y="1171"/>
      <point x="250" y="1144"/>
      <point x="274" y="1091" type="curve" smooth="yes"/>
      <point x="297" y="1039"/>
      <point x="328" y="1038"/>
      <point x="358" y="1054" type="curve" smooth="yes"/>
      <point x="442" y="1098"/>
      <point x="528" y="1121"/>
      <point x="619" y="1121" type="curve" smooth="yes"/>
      <point x="744" y="1121"/>
      <point x="812" y="1053"/>
      <point x="812" y="956" type="curve" smooth="yes"/>
      <point x="812" y="856"/>
      <point x="746" y="806"/>
      <point x="594" y="744" type="curve" smooth="yes"/>
      <point x="525" y="716" type="line" smooth="yes"/>
      <point x="502" y="707"/>
      <point x="494" y="691"/>
      <point x="495" y="665" type="curve" smooth="yes"/>
      <point x="505" y="440" type="line" smooth="yes"/>
      <point x="507" y="409"/>
      <point x="532" y="389"/>
      <point x="574" y="389" type="curve" smooth="yes"/>
      <point x="616" y="389"/>
      <point x="641" y="409"/>
      <point x="643" y="440" type="curve" smooth="yes"/>
      <point x="653" y="611" type="line"/>
      <point x="859" y="695"/>
      <point x="966" y="780"/>
      <point x="966" y="956" type="curve" smooth="yes"/>
      <point x="966" y="1141"/>
      <point x="838" y="1269"/>
      <point x="618" y="1269" type="curve" smooth="yes"/>
    </contour>
    <contour>
      <point x="493" y="230"/>
      <point x="459" y="212"/>
      <point x="459" y="167" type="curve" smooth="yes"/>
      <point x="459" y="53" type="line" smooth="yes"/>
      <point x="459" y="8"/>
      <point x="493" y="-10"/>
      <point x="574" y="-10" type="curve" smooth="yes"/>
      <point x="655" y="-10"/>
      <point x="689" y="8"/>
      <point x="689" y="53" type="curve" smooth="yes"/>
      <point x="689" y="167" type="line" smooth="yes"/>
      <point x="689" y="212"/>
      <point x="655" y="230"/>
      <point x="574" y="230" type="curve" smooth="yes"/>
    </contour>
  </outline>
</glyph>
<glyph name="C" format="1">
  <advance width="1228"/>
  <unicode hex="0043"/>
  <outline>
    <contour>
      <point x="355" y="1209"/>
      <point x="150" y="964"/>
      <point x="150" y="594" type="curve" smooth="yes"/>
      <point x="150" y="224"/>
      <point x="355" y="-22"/>
      <point x="664" y="-22" type="curve" smooth="yes"/>
      <point x="797" y="-22"/>
      <point x="916" y="10"/>
      <point x="1037" y="79" type="curve" smooth="yes"/>
      <point x="1075" y="101"/>
      <point x="1084" y="133"/>
      <point x="1061" y="183" type="curve" smooth="yes"/>
      <point x="1037" y="235"/>
      <point x="1003" y="233"/>
      <point x="974" y="216" type="curve" smooth="yes"/>
      <point x="877" y="158"/>
      <point x="775" y="126"/>
      <point x="664" y="126" type="curve" smooth="yes"/>
      <point x="447" y="126"/>
      <point x="304" y="306"/>
      <point x="304" y="594" type="curve" smooth="yes"/>
      <point x="304" y="882"/>
      <point x="447" y="1061"/>
      <point x="664" y="1061" type="curve" smooth="yes"/>
      <point x="775" y="1061"/>
      <point x="877" y="1029"/>
      <point x="974" y="971" type="curve" smooth="yes"/>
      <point x="1003" y="954"/>
      <point x="1037" y="952"/>
      <point x="1061" y="1004" type="curve" smooth="yes"/>
      <point x="1084" y="1054"/>
      <point x="1075" y="1086"/>
      <point x="1037" y="1108" type="curve" smooth="yes"/>
      <point x="916" y="1177"/>
      <point x="797" y="1209"/>
      <point x="664" y="1209" type="curve" smooth="yes"/>
    </contour>
  </outline>
</glyph>
<glyph name="D" format="1">
  <advance width="1228"/>
  <unicode hex="0044"/>
  <outline>
    <contour>
      <point x="238" y="1187" type="line" smooth="yes"/>
      <point x="193" y="1187"/>
      <point x="175" y="1169"/>
      <point x="175" y="1119" type="curve" smooth="yes"/>
      <point x="175" y="68" type="line" smooth="yes"/>
      <point x="175" y="18"/>
      <point x="193" y="0"/>
      <point x="238" y="0" type="curve"/>
      <point x="574" y="0" type="line" smooth="yes"/>
      <point x="889" y="0"/>
      <point x="1100" y="223"/>
      <point x="1100" y="593" type="curve" smooth="yes"/>
      <point x="1100" y="963"/>
      <point x="889" y="1187"/>
      <point x="574" y="1187" type="curve" smooth="yes"/>
    </contour>
    <contour>
      <point x="792" y="1043"/>
      <point x="946" y="891"/>
      <point x="946" y="593" type="curve" smooth="yes"/>
      <point x="946" y="295"/>
      <point x="792" y="144"/>
      <point x="555" y="144" type="curve" smooth="yes"/>
      <point x="325" y="144" type="line"/>
      <point x="325" y="1043" type="line"/>
      <point x="555" y="1043" type="line" smooth="yes"/>
    </contour>
  </outline>
</glyph>
<glyph name="E" format="1">
  <advance width="1228"/>
  <unicode hex="0045"/>
  <outline>
    <contour>
      <point x="288" y="1187" type="line" smooth="yes"/>
      <point x="243" y="1187"/>
      <point x="225" y="1169"/>
      <point x="225" y="1119" type="curve" smooth="yes"/>
      <point x="225" y="68" type="line" smooth="yes"/>
      <point x="225" y="18"/>
      <point x="243" y="0"/>
      <point x="288" y="0" type="curve" smooth="yes"/>
      <point x="375" y="0" type="line"/>
      <point x="375" y="1187" type="line"/>
    </contour>
    <contour>
      <point x="329" y="144" type="line"/>
      <point x="329" y="0" type="line"/>
      <point x="977" y="0" type="line" smooth="yes"/>
      <point x="1022" y="0"/>
      <point x="1040" y="20"/>
      <point x="1040" y="72" type="curve" smooth="yes"/>
      <point x="1040" y="124"/>
      <point x="1022" y="144"/>
      <point x="977" y="144" type="curve" smooth="yes"/>
    </contour>
    <contour>
      <point x="329" y="684" type="line"/>
      <point x="329" y="540" type="line"/>
      <point x="832" y="540" type="line" smooth="yes"/>
      <point x="877" y="540"/>
      <point x="895" y="560"/>
      <point x="895" y="612" type="curve" smooth="yes"/>
      <point x="895" y="664"/>
      <point x="877" y="684"/>
      <point x="832" y="684" type="curve" smooth="yes"/>
    </contour>
    <contour>
      <point x="329" y="1187" type="line"/>
      <point x="329" y="1043" type="line"/>
      <point x="957" y="1043" type="line" smooth="yes"/>
      <point x="1002" y="1043"/>
      <point x="1020" y="1063"/>
      <point x="1020" y="1115" type="curve" smooth="yes"/>
      <point x="1020" y="1167"/>
      <point x="1002" y="1187"/>
      <point x="957" y="1187" type="curve" smooth="yes"/>
    </contour>
  </outline>
</glyph>
<glyph name="G" format="1">
  <advance width="1228"/>
  <unicode hex="0047"/>
  <outline>
    <contour>
      <point x="335" y="1209"/>
      <point x="110" y="964"/>
      <point x="110" y="594" type="curve" smooth="yes"/>
      <point x="110" y="224"/>
      <point x="319" y="-22"/>
      <point x="634" y="-22" type="curve" smooth="yes"/>
      <point x="788" y="-22"/>
      <point x="937" y="11"/>
      <point x="1047" y="74" type="curve" smooth="yes"/>
      <point x="1070" y="87"/>
      <point x="1083" y="111"/>
      <point x="1083" y="143" type="curve"/>
      <point x="958" y="195" type="line"/>
      <point x="865" y="146"/>
      <point x="758" y="126"/>
      <point x="634" y="126" type="curve" smooth="yes"/>
      <point x="412" y="126"/>
      <point x="264" y="306"/>
      <point x="264" y="594" type="curve" smooth="yes"/>
      <point x="264" y="882"/>
      <point x="427" y="1061"/>
      <point x="644" y="1061" type="curve" smooth="yes"/>
      <point x="755" y="1061"/>
      <point x="857" y="1036"/>
      <point x="955" y="980" type="curve" smooth="yes"/>
      <point x="985" y="963"/>
      <point x="1019" y="962"/>
      <point x="1042" y="1015" type="curve" smooth="yes"/>
      <point x="1063" y="1065"/>
      <point x="1054" y="1097"/>
      <point x="1015" y="1118" type="curve" smooth="yes"/>
      <point x="893" y="1184"/>
      <point x="777" y="1209"/>
      <point x="644" y="1209" type="curve" smooth="yes"/>
    </contour>
    <contour>
      <point x="666" y="594" type="line" smooth="yes"/>
      <point x="621" y="594"/>
      <point x="603" y="574"/>
      <point x="603" y="522" type="curve" smooth="yes"/>
      <point x="603" y="470"/>
      <point x="621" y="450"/>
      <point x="666" y="450" type="curve" smooth="yes"/>
      <point x="992" y="450" type="line"/>
      <point x="992" y="594" type="line"/>
    </contour>
    <contour>
      <point x="933" y="594" type="line"/>
      <point x="933" y="143" type="line"/>
      <point x="1083" y="143" type="line"/>
      <point x="1083" y="526" type="line"/>
      <point x="1083" y="576"/>
      <point x="1065" y="594"/>
      <point x="1020" y="594" type="curve" smooth="yes"/>
    </contour>
  </outline>
</glyph>
<glyph name="H" format="1">
  <advance width="1228"/>
  <unicode hex="0048"/>
  <outline>
    <contour>
      <point x="977" y="1197" type="line"/>
      <point x="921" y="1197"/>
      <point x="903" y="1178"/>
      <point x="903" y="1132" type="curve" smooth="yes"/>
      <point x="903" y="55" type="line" smooth="yes"/>
      <point x="903" y="9"/>
      <point x="921" y="-10"/>
      <point x="977" y="-10" type="curve"/>
      <point x="979" y="-10" type="line"/>
      <point x="1035" y="-10"/>
      <point x="1053" y="9"/>
      <point x="1053" y="55" type="curve" smooth="yes"/>
      <point x="1053" y="1132" type="line" smooth="yes"/>
      <point x="1053" y="1178"/>
      <point x="1035" y="1197"/>
      <point x="979" y="1197" type="curve"/>
    </contour>
    <contour>
      <point x="249" y="1197" type="line"/>
      <point x="193" y="1197"/>
      <point x="175" y="1178"/>
      <point x="175" y="1132" type="curve" smooth="yes"/>
      <point x="175" y="55" type="line" smooth="yes"/>
      <point x="175" y="9"/>
      <point x="193" y="-10"/>
      <point x="249" y="-10" type="curve"/>
      <point x="251" y="-10" type="line"/>
      <point x="307" y="-10"/>
      <point x="325" y="9"/>
      <point x="325" y="55" type="curve" smooth="yes"/>
      <point x="325" y="1132" type="line" smooth="yes"/>
      <point x="325" y="1178"/>
      <point x="307" y="1197"/>
      <point x="251" y="1197" type="curve"/>
    </contour>
    <contour>
      <point x="259" y="684" type="line"/>
      <point x="259" y="540" type="line"/>
      <point x="969" y="540" type="line"/>
      <point x="969" y="684" type="line"/>
    </contour>
  </outline>
</glyph>
<glyph name="I" format="1">
  <advance width="1228"/>
  <unicode hex="0049"/>
  <outline>
    <contour>
      <point x="539" y="1131" type="line"/>
      <point x="539" y="63" type="line"/>
      <point x="689" y="63" type="line"/>
      <point x="689" y="1131" type="line"/>
    </contour>
    <contour>
      <point x="263" y="144" type="line" smooth="yes"/>
      <point x="218" y="144"/>
      <point x="200" y="124"/>
      <point x="200" y="72" type="curve" smooth="yes"/>
      <point x="200" y="20"/>
      <point x="218" y="0"/>
      <point x="263" y="0" type="curve" smooth="yes"/>
      <point x="965" y="0" type="line" smooth="yes"/>
      <point x="1010" y="0"/>
      <point x="1028" y="20"/>
      <point x="1028" y="72" type="curve" smooth="yes"/>
      <point x="1028" y="124"/>
      <point x="1010" y="144"/>
      <point x="965" y="144" type="curve" smooth="yes"/>
    </contour>
    <contour>
      <point x="283" y="1187" type="line" smooth="yes"/>
      <point x="238" y="1187"/>
      <point x="220" y="1167"/>
      <point x="220" y="1115" type="curve" smooth="yes"/>
      <point x="220" y="1063"/>
      <point x="238" y="1043"/>
      <point x="283" y="1043" type="curve" smooth="yes"/>
      <point x="945" y="1043" type="line" smooth="yes"/>
      <point x="990" y="1043"/>
      <point x="1008" y="1063"/>
      <point x="1008" y="1115" type="curve" smooth="yes"/>
      <point x="1008" y="1167"/>
      <point x="990" y="1187"/>
      <point x="945" y="1187" type="curve" smooth="yes"/>
    </contour>
  </outline>
</glyph>
<glyph name="J" format="1">
  <advance width="1228"/>
  <unicode hex="004A"/>
  <outline>
    <contour>
      <point x="804" y="1187" type="line"/>
      <point x="804" y="363" type="line" smooth="yes"/>
      <point x="804" y="210"/>
      <point x="734" y="126"/>
      <point x="582" y="126" type="curve" smooth="yes"/>
      <point x="478" y="126"/>
      <point x="377" y="160"/>
      <point x="294" y="222" type="curve" smooth="yes"/>
      <point x="268" y="242"/>
      <point x="234" y="246"/>
      <point x="202" y="197" type="curve" smooth="yes"/>
      <point x="173" y="151"/>
      <point x="179" y="118"/>
      <point x="214" y="92" type="curve" smooth="yes"/>
      <point x="315" y="17"/>
      <point x="449" y="-22"/>
      <point x="581" y="-22" type="curve" smooth="yes"/>
      <point x="817" y="-22"/>
      <point x="954" y="104"/>
      <point x="954" y="333" type="curve" smooth="yes"/>
      <point x="954" y="1119" type="line" smooth="yes"/>
      <point x="954" y="1169"/>
      <point x="933" y="1187"/>
      <point x="891" y="1187" type="curve" smooth="yes"/>
    </contour>
    <contour>
      <point x="443" y="1187" type="line" smooth="yes"/>
      <point x="398" y="1187"/>
      <point x="380" y="1167"/>
      <point x="380" y="1115" type="curve" smooth="yes"/>
      <point x="380" y="1063"/>
      <point x="398" y="1043"/>
      <point x="443" y="1043" type="curve" smooth="yes"/>
      <point x="861" y="1043" type="line"/>
      <point x="861" y="1187" type="line"/>
    </contour>
  </outline>
</glyph>
<glyph name="N" format="1">
  <advance width="1228"/>
  <unicode hex="004E"/>
  <outline>
    <contour>
      <point x="979" y="1197" type="line" smooth="yes"/>
      <point x="925" y="1197"/>
      <point x="907" y="1178"/>
      <point x="907" y="1132" type="curve" smooth="yes"/>
      <point x="907" y="287" type="line"/>
      <point x="903" y="287" type="line"/>
      <point x="339" y="1169" type="line" smooth="yes"/>
      <point x="327" y="1187"/>
      <point x="306" y="1197"/>
      <point x="277" y="1197" type="curve" smooth="yes"/>
      <point x="250" y="1197" type="line" smooth="yes"/>
      <point x="194" y="1197"/>
      <point x="175" y="1178"/>
      <point x="175" y="1132" type="curve" smooth="yes"/>
      <point x="175" y="55" type="line" smooth="yes"/>
      <point x="175" y="9"/>
      <point x="193" y="-10"/>
      <point x="247" y="-10" type="curve" smooth="yes"/>
      <point x="249" y="-10" type="line" smooth="yes"/>
      <point x="303" y="-10"/>
      <point x="321" y="9"/>
      <point x="321" y="55" type="curve" smooth="yes"/>
      <point x="321" y="921" type="line"/>
      <point x="325" y="921" type="line"/>
      <point x="894" y="33" type="line" smooth="yes"/>
      <point x="916" y="-1"/>
      <point x="940" y="-22"/>
      <point x="978" y="-22" type="curve" smooth="yes"/>
      <point x="1030" y="-22"/>
      <point x="1053" y="2"/>
      <point x="1053" y="37" type="curve" smooth="yes"/>
      <point x="1053" y="1132" type="line" smooth="yes"/>
      <point x="1053" y="1178"/>
      <point x="1035" y="1197"/>
      <point x="981" y="1197" type="curve" smooth="yes"/>
    </contour>
  </outline>
</glyph>
<glyph name="O" format="1">
  <advance width="1228"/>
  <unicode hex="004F"/>
  <outline>
    <contour>
      <point x="299" y="1209"/>
      <point x="90" y="963"/>
      <point x="90" y="593" type="curve" smooth="yes"/>
      <point x="90" y="223"/>
      <point x="299" y="-22"/>
      <point x="614" y="-22" type="curve" smooth="yes"/>
      <point x="929" y="-22"/>
      <point x="1138" y="223"/>
      <point x="1138" y="593" type="curve" smooth="yes"/>
      <point x="1138" y="963"/>
      <point x="929" y="1209"/>
      <point x="614" y="1209" type="curve" smooth="yes"/>
    </contour>
    <contour>
      <point x="838" y="1061"/>
      <point x="984" y="883"/>
      <point x="984" y="593" type="curve" smooth="yes"/>
      <point x="984" y="303"/>
      <point x="838" y="126"/>
      <point x="614" y="126" type="curve" smooth="yes"/>
      <point x="390" y="126"/>
      <point x="244" y="303"/>
      <point x="244" y="593" type="curve" smooth="yes"/>
      <point x="244" y="883"/>
      <point x="390" y="1061"/>
      <point x="614" y="1061" type="curve" smooth="yes"/>
    </contour>
  </outline>
</glyph>
<glyph name="Q" format="1">
  <advance width="1228"/>
  <unicode hex="0051"/>
  <outline>
    <contour>
      <point x="578" y="365"/>
      <point x="572" y="339"/>
      <point x="597" y="300" type="curve" smooth="yes"/>
      <point x="728" y="95" type="line"/>
      <point x="754" y="54" type="line"/>
      <point x="876" y="-135" type="line" smooth="yes"/>
      <point x="901" y="-173"/>
      <point x="927" y="-179"/>
      <point x="974" y="-149" type="curve" smooth="yes"/>
      <point x="1022" y="-119"/>
      <point x="1027" y="-92"/>
      <point x="1002" y="-54" type="curve" smooth="yes"/>
      <point x="723" y="381" type="line" smooth="yes"/>
      <point x="698" y="420"/>
      <point x="672" y="426"/>
      <point x="625" y="396" type="curve" smooth="yes"/>
    </contour>
    <component base="O"/>
  </outline>
</glyph>
<glyph name="R" format="1">
  <advance width="1228"/>
  <unicode hex="0052"/>
  <outline>
    <contour>
      <point x="327" y="1187" type="line"/>
      <point x="327" y="1043" type="line"/>
      <point x="589" y="1043" type="line" smooth="yes"/>
      <point x="776" y="1043"/>
      <point x="868" y="969"/>
      <point x="868" y="828" type="curve" smooth="yes"/>
      <point x="868" y="689"/>
      <point x="776" y="617"/>
      <point x="589" y="617" type="curve" smooth="yes"/>
      <point x="327" y="617" type="line"/>
      <point x="327" y="473" type="line"/>
      <point x="610" y="473" type="line" smooth="yes"/>
      <point x="880" y="473"/>
      <point x="1022" y="613"/>
      <point x="1022" y="828" type="curve" smooth="yes"/>
      <point x="1022" y="1044"/>
      <point x="880" y="1187"/>
      <point x="610" y="1187" type="curve" smooth="yes"/>
    </contour>
    <contour>
      <point x="288" y="1187" type="line" smooth="yes"/>
      <point x="243" y="1187"/>
      <point x="225" y="1169"/>
      <point x="225" y="1119" type="curve" smooth="yes"/>
      <point x="225" y="55" type="line" smooth="yes"/>
      <point x="225" y="9"/>
      <point x="243" y="-10"/>
      <point x="299" y="-10" type="curve" smooth="yes"/>
      <point x="301" y="-10" type="line" smooth="yes"/>
      <point x="357" y="-10"/>
      <point x="375" y="9"/>
      <point x="375" y="55" type="curve" smooth="yes"/>
      <point x="375" y="1187" type="line"/>
    </contour>
    <contour>
      <point x="556" y="536" type="line"/>
      <point x="895" y="13" type="line" smooth="yes"/>
      <point x="916" y="-20"/>
      <point x="943" y="-22"/>
      <point x="992" y="0" type="curve" smooth="yes"/>
      <point x="1043" y="23"/>
      <point x="1050" y="49"/>
      <point x="1025" y="88" type="curve" smooth="yes"/>
      <point x="714" y="562" type="line"/>
    </contour>
  </outline>
</glyph>
<glyph name="S" format="1">
  <advance width="1228"/>
  <unicode hex="0053"/>
  <outline>
    <contour>
      <point x="338" y="1209"/>
      <point x="172" y="1080"/>
      <point x="172" y="863" type="curve" smooth="yes"/>
      <point x="172" y="724"/>
      <point x="241" y="651"/>
      <point x="336" y="608" type="curve" smooth="yes"/>
      <point x="473" y="546"/>
      <point x="664" y="544"/>
      <point x="787" y="492" type="curve" smooth="yes"/>
      <point x="859" y="461"/>
      <point x="908" y="414"/>
      <point x="908" y="327" type="curve" smooth="yes"/>
      <point x="908" y="209"/>
      <point x="817" y="126"/>
      <point x="622" y="126" type="curve" smooth="yes"/>
      <point x="491" y="126"/>
      <point x="365" y="171"/>
      <point x="270" y="232" type="curve" smooth="yes"/>
      <point x="242" y="250"/>
      <point x="208" y="251"/>
      <point x="181" y="199" type="curve" smooth="yes"/>
      <point x="156" y="151"/>
      <point x="164" y="117"/>
      <point x="201" y="94" type="curve" smooth="yes"/>
      <point x="319" y="21"/>
      <point x="469" y="-22"/>
      <point x="622" y="-22" type="curve" smooth="yes"/>
      <point x="916" y="-22"/>
      <point x="1062" y="121"/>
      <point x="1062" y="327" type="curve" smooth="yes"/>
      <point x="1062" y="503"/>
      <point x="973" y="587"/>
      <point x="856" y="634" type="curve" smooth="yes"/>
      <point x="705" y="695"/>
      <point x="509" y="694"/>
      <point x="403" y="748" type="curve" smooth="yes"/>
      <point x="355" y="772"/>
      <point x="326" y="807"/>
      <point x="326" y="863" type="curve" smooth="yes"/>
      <point x="326" y="985"/>
      <point x="418" y="1061"/>
      <point x="578" y="1061" type="curve" smooth="yes"/>
      <point x="709" y="1061"/>
      <point x="826" y="1027"/>
      <point x="923" y="969" type="curve" smooth="yes"/>
      <point x="952" y="952"/>
      <point x="987" y="952"/>
      <point x="1011" y="1004" type="curve" smooth="yes"/>
      <point x="1034" y="1054"/>
      <point x="1026" y="1087"/>
      <point x="988" y="1109" type="curve" smooth="yes"/>
      <point x="867" y="1178"/>
      <point x="731" y="1209"/>
      <point x="578" y="1209" type="curve" smooth="yes"/>
    </contour>
  </outline>
</glyph>
<glyph name="V" format="1">
  <advance width="1228"/>
  <unicode hex="0056"/>
  <outline>
    <contour>
      <point x="1014" y="1207"/>
      <point x="989" y="1195"/>
      <point x="973" y="1151" type="curve" smooth="yes"/>
      <point x="612" y="182" type="line"/>
      <point x="251" y="1151" type="line" smooth="yes"/>
      <point x="235" y="1195"/>
      <point x="210" y="1207"/>
      <point x="157" y="1189" type="curve" smooth="yes"/>
      <point x="103" y="1171"/>
      <point x="89" y="1147"/>
      <point x="106" y="1103" type="curve" smooth="yes"/>
      <point x="505" y="43" type="line" smooth="yes"/>
      <point x="523" y="-4"/>
      <point x="555" y="-22"/>
      <point x="612" y="-22" type="curve" smooth="yes"/>
      <point x="669" y="-22"/>
      <point x="701" y="-4"/>
      <point x="719" y="43" type="curve" smooth="yes"/>
      <point x="1118" y="1103" type="line" smooth="yes"/>
      <point x="1135" y="1147"/>
      <point x="1121" y="1171"/>
      <point x="1067" y="1189" type="curve" smooth="yes"/>
    </contour>
  </outline>
</glyph>
<glyph name="Y" format="1">
  <advance width="1228"/>
  <unicode hex="0059"/>
  <outline>
    <contour>
      <point x="539" y="552" type="line"/>
      <point x="539" y="55" type="line" smooth="yes"/>
      <point x="539" y="9"/>
      <point x="557" y="-10"/>
      <point x="613" y="-10" type="curve" smooth="yes"/>
      <point x="615" y="-10" type="line" smooth="yes"/>
      <point x="671" y="-10"/>
      <point x="689" y="9"/>
      <point x="689" y="55" type="curve" smooth="yes"/>
      <point x="689" y="552" type="line"/>
    </contour>
    <contour>
      <point x="1005" y="1210"/>
      <point x="977" y="1205"/>
      <point x="955" y="1172" type="curve" smooth="yes"/>
      <point x="563" y="567" type="line"/>
      <point x="671" y="460" type="line"/>
      <point x="1088" y="1096" type="line" smooth="yes"/>
      <point x="1114" y="1136"/>
      <point x="1107" y="1163"/>
      <point x="1055" y="1187" type="curve" smooth="yes"/>
    </contour>
    <contour>
      <point x="121" y="1163"/>
      <point x="114" y="1136"/>
      <point x="140" y="1096" type="curve" smooth="yes"/>
      <point x="548" y="473" type="line"/>
      <point x="670" y="560" type="line"/>
      <point x="273" y="1172" type="line" smooth="yes"/>
      <point x="252" y="1205"/>
      <point x="223" y="1210"/>
      <point x="173" y="1187" type="curve" smooth="yes"/>
    </contour>
  </outline>
</glyph>
<glyph name="Z" format="1">
  <advance width="1228"/>
  <unicode hex="005A"/>
  <outline>
    <contour>
      <point x="827" y="1187" type="line"/>
      <point x="827" y="1051" type="line"/>
      <point x="181" y="111" type="line" smooth="yes"/>
      <point x="173" y="99"/>
      <point x="167" y="86"/>
      <point x="167" y="68" type="curve" smooth="yes"/>
      <point x="167" y="18"/>
      <point x="185" y="0"/>
      <point x="230" y="0" type="curve" smooth="yes"/>
      <point x="383" y="0" type="line"/>
      <point x="382" y="136" type="line"/>
      <point x="1031" y="1080" type="line" smooth="yes"/>
      <point x="1038" y="1090"/>
      <point x="1041" y="1103"/>
      <point x="1041" y="1119" type="curve" smooth="yes"/>
      <point x="1041" y="1169"/>
      <point x="1023" y="1187"/>
      <point x="978" y="1187" type="curve" smooth="yes"/>
    </contour>
    <contour>
      <point x="310" y="144" type="line"/>
      <point x="310" y="0" type="line"/>
      <point x="996" y="0" type="line" smooth="yes"/>
      <point x="1041" y="0"/>
      <point x="1059" y="20"/>
      <point x="1059" y="72" type="curve" smooth="yes"/>
      <point x="1059" y="124"/>
      <point x="1041" y="144"/>
      <point x="996" y="144" type="curve" smooth="yes"/>
    </contour>
    <contour>
      <point x="256" y="1187" type="line" smooth="yes"/>
      <point x="211" y="1187"/>
      <point x="193" y="1167"/>
      <point x="193" y="1115" type="curve" smooth="yes"/>
      <point x="193" y="1063"/>
      <point x="211" y="1043"/>
      <point x="256" y="1043" type="curve" smooth="yes"/>
      <point x="891" y="1043" type="line"/>
      <point x="891" y="1187" type="line"/>
    </contour>
  </outline>
</glyph>
<glyph name="underscore" format="1">
  <advance width="1228"/>
  <unicode hex="005F"/>
  <outline>
    <contour>
      <point x="133" y="-249" type="line" smooth="yes"/>
      <point x="88" y="-249"/>
      <point x="70" y="-269"/>
      <point x="70" y="-321" type="curve" smooth="yes"/>
      <point x="70" y="-373"/>
      <point x="88" y="-393"/>
      <point x="133" y="-393" type="curve" smooth="yes"/>
      <point x="1095" y="-393" type="line" smooth="yes"/>
      <point x="1140" y="-393"/>
      <point x="1158" y="-373"/>
      <point x="1158" y="-321" type="curve" smooth="yes"/>
      <point x="1158" y="-269"/>
      <point x="1140" y="-249"/>
      <point x="1095" y="-249" type="curve" smooth="yes"/>
    </contour>
  </outline>
</glyph>
<glyph name="a" format="1">
  <advance width="1228"/>
  <unicode hex="0061"/>
  <outline>
    <contour>
      <point x="509" y="946"/>
      <point x="376" y="914"/>
      <point x="264" y="855" type="curve" smooth="yes"/>
      <point x="230" y="837"/>
      <point x="216" y="807"/>
      <point x="238" y="761" type="curve" smooth="yes"/>
      <point x="260" y="715"/>
      <point x="287" y="703"/>
      <point x="324" y="722" type="curve" smooth="yes"/>
      <point x="420" y="771"/>
      <point x="533" y="801"/>
      <point x="634" y="801" type="curve" smooth="yes"/>
      <point x="797" y="801"/>
      <point x="864" y="741"/>
      <point x="864" y="613" type="curve" smooth="yes"/>
      <point x="864" y="268" type="line"/>
      <point x="874" y="139" type="line"/>
      <point x="874" y="55" type="line" smooth="yes"/>
      <point x="874" y="9"/>
      <point x="890" y="-10"/>
      <point x="943" y="-10" type="curve" smooth="yes"/>
      <point x="945" y="-10" type="line" smooth="yes"/>
      <point x="998" y="-10"/>
      <point x="1014" y="9"/>
      <point x="1014" y="55" type="curve"/>
      <point x="1014" y="613" type="line" smooth="yes"/>
      <point x="1014" y="832"/>
      <point x="889" y="946"/>
      <point x="638" y="946" type="curve" smooth="yes"/>
    </contour>
    <contour>
      <point x="341" y="579"/>
      <point x="159" y="494"/>
      <point x="159" y="270" type="curve" smooth="yes"/>
      <point x="159" y="84"/>
      <point x="299" y="-22"/>
      <point x="499" y="-22" type="curve" smooth="yes"/>
      <point x="649" y="-22"/>
      <point x="780" y="38"/>
      <point x="886" y="134" type="curve"/>
      <point x="875" y="296" type="line"/>
      <point x="775" y="188"/>
      <point x="653" y="119"/>
      <point x="505" y="119" type="curve" smooth="yes"/>
      <point x="384" y="119"/>
      <point x="313" y="176"/>
      <point x="313" y="273" type="curve" smooth="yes"/>
      <point x="313" y="394"/>
      <point x="417" y="438"/>
      <point x="561" y="438" type="curve" smooth="yes"/>
      <point x="669" y="438"/>
      <point x="783" y="421"/>
      <point x="878" y="388" type="curve"/>
      <point x="879" y="523" type="line"/>
      <point x="781" y="559"/>
      <point x="674" y="579"/>
      <point x="560" y="579" type="curve" smooth="yes"/>
    </contour>
  </outline>
</glyph>
<glyph name="e" format="1">
  <advance width="1228"/>
  <unicode hex="0065"/>
  <outline>
    <contour>
      <point x="344" y="946"/>
      <point x="148" y="753"/>
      <point x="148" y="462" type="curve" smooth="yes"/>
      <point x="148" y="161"/>
      <point x="311" y="-22"/>
      <point x="603" y="-22" type="curve" smooth="yes"/>
      <point x="758" y="-22"/>
      <point x="912" y="15"/>
      <point x="1016" y="65" type="curve" smooth="yes"/>
      <point x="1057" y="85"/>
      <point x="1070" y="116"/>
      <point x="1053" y="162" type="curve" smooth="yes"/>
      <point x="1036" y="209"/>
      <point x="1004" y="231"/>
      <point x="963" y="209" type="curve" smooth="yes"/>
      <point x="872" y="156"/>
      <point x="737" y="123"/>
      <point x="603" y="123" type="curve" smooth="yes"/>
      <point x="418" y="123"/>
      <point x="312" y="225"/>
      <point x="302" y="425" type="curve"/>
      <point x="1026" y="425" type="line" smooth="yes"/>
      <point x="1071" y="425"/>
      <point x="1092" y="442"/>
      <point x="1089" y="487" type="curve" smooth="yes"/>
      <point x="1074" y="753"/>
      <point x="920" y="946"/>
      <point x="623" y="946" type="curve" smooth="yes"/>
    </contour>
    <contour>
      <point x="799" y="801"/>
      <point x="899" y="715"/>
      <point x="927" y="565" type="curve"/>
      <point x="312" y="565" type="line"/>
      <point x="345" y="712"/>
      <point x="457" y="801"/>
      <point x="623" y="801" type="curve" smooth="yes"/>
    </contour>
  </outline>
</glyph>
<glyph name="g" format="1">
  <advance width="1228"/>
  <unicode hex="0067"/>
  <outline>
    <contour>
      <point x="322" y="946"/>
      <point x="139" y="774"/>
      <point x="139" y="487" type="curve" smooth="yes"/>
      <point x="139" y="200"/>
      <point x="322" y="28"/>
      <point x="569" y="28" type="curve" smooth="yes"/>
      <point x="702" y="28"/>
      <point x="807" y="85"/>
      <point x="886" y="184" type="curve"/>
      <point x="886" y="-17" type="line" smooth="yes"/>
      <point x="886" y="-164"/>
      <point x="798" y="-262"/>
      <point x="613" y="-262" type="curve" smooth="yes"/>
      <point x="507" y="-262"/>
      <point x="389" y="-241"/>
      <point x="289" y="-206" type="curve" smooth="yes"/>
      <point x="255" y="-194"/>
      <point x="227" y="-207"/>
      <point x="210" y="-257" type="curve" smooth="yes"/>
      <point x="193" y="-308"/>
      <point x="205" y="-337"/>
      <point x="241" y="-350" type="curve" smooth="yes"/>
      <point x="354" y="-391"/>
      <point x="489" y="-410"/>
      <point x="613" y="-410" type="curve" smooth="yes"/>
      <point x="881" y="-410"/>
      <point x="1036" y="-269"/>
      <point x="1036" y="-30" type="curve" smooth="yes"/>
      <point x="1036" y="869" type="line" smooth="yes"/>
      <point x="1036" y="915"/>
      <point x="1020" y="934"/>
      <point x="967" y="934" type="curve" smooth="yes"/>
      <point x="965" y="934" type="line" smooth="yes"/>
      <point x="912" y="934"/>
      <point x="896" y="915"/>
      <point x="896" y="869" type="curve" smooth="yes"/>
      <point x="896" y="776" type="line"/>
      <point x="814" y="883"/>
      <point x="702" y="946"/>
      <point x="569" y="946" type="curve" smooth="yes"/>
    </contour>
    <contour>
      <point x="756" y="798"/>
      <point x="886" y="684"/>
      <point x="886" y="487" type="curve" smooth="yes"/>
      <point x="886" y="290"/>
      <point x="756" y="176"/>
      <point x="579" y="176" type="curve" smooth="yes"/>
      <point x="398" y="176"/>
      <point x="293" y="306"/>
      <point x="293" y="487" type="curve" smooth="yes"/>
      <point x="293" y="668"/>
      <point x="398" y="798"/>
      <point x="579" y="798" type="curve" smooth="yes"/>
    </contour>
  </outline>
</glyph>
<glyph name="j" format="1">
  <advance width="1228"/>
  <unicode hex="006A"/>
  <outline>
    <contour>
      <point x="730" y="924" type="line"/>
      <point x="753" y="798" type="line"/>
      <point x="753" y="-44" type="line" smooth="yes"/>
      <point x="753" y="-191"/>
      <point x="710" y="-264"/>
      <point x="576" y="-264" type="curve" smooth="yes"/>
      <point x="483" y="-264"/>
      <point x="379" y="-222"/>
      <point x="292" y="-165" type="curve" smooth="yes"/>
      <point x="262" y="-145"/>
      <point x="228" y="-153"/>
      <point x="203" y="-201" type="curve" smooth="yes"/>
      <point x="178" y="-249"/>
      <point x="190" y="-277"/>
      <point x="223" y="-298" type="curve" smooth="yes"/>
      <point x="323" y="-361"/>
      <point x="461" y="-410"/>
      <point x="576" y="-410" type="curve" smooth="yes"/>
      <point x="808" y="-410"/>
      <point x="903" y="-286"/>
      <point x="903" y="-57" type="curve" smooth="yes"/>
      <point x="903" y="856" type="line" smooth="yes"/>
      <point x="903" y="906"/>
      <point x="885" y="924"/>
      <point x="840" y="924" type="curve" smooth="yes"/>
    </contour>
    <contour>
      <point x="330" y="924" type="line" smooth="yes"/>
      <point x="285" y="924"/>
      <point x="267" y="904"/>
      <point x="267" y="852" type="curve" smooth="yes"/>
      <point x="267" y="800"/>
      <point x="285" y="780"/>
      <point x="330" y="780" type="curve" smooth="yes"/>
      <point x="784" y="780" type="line"/>
      <point x="784" y="924" type="line"/>
    </contour>
    <contour>
      <point x="732" y="1363"/>
      <point x="713" y="1344"/>
      <point x="713" y="1298" type="curve" smooth="yes"/>
      <point x="713" y="1168" type="line" smooth="yes"/>
      <point x="713" y="1122"/>
      <point x="732" y="1103"/>
      <point x="808" y="1103" type="curve" smooth="yes"/>
      <point x="884" y="1103"/>
      <point x="903" y="1122"/>
      <point x="903" y="1168" type="curve" smooth="yes"/>
      <point x="903" y="1298" type="line" smooth="yes"/>
      <point x="903" y="1344"/>
      <point x="884" y="1363"/>
      <point x="808" y="1363" type="curve" smooth="yes"/>
    </contour>
  </outline>
</glyph>
<glyph name="k" format="1">
  <advance width="1228"/>
  <unicode hex="006B"/>
  <outline>
    <contour>
      <point x="972" y="949"/>
      <point x="936" y="946"/>
      <point x="911" y="924" type="curve" smooth="yes"/>
      <point x="287" y="368" type="line"/>
      <point x="370" y="248" type="line"/>
      <point x="1035" y="833" type="line" smooth="yes"/>
      <point x="1070" y="863"/>
      <point x="1061" y="896"/>
      <point x="1014" y="924" type="curve" smooth="yes"/>
    </contour>
    <contour>
      <point x="306" y="1322" type="line" smooth="yes"/>
      <point x="250" y="1322"/>
      <point x="232" y="1303"/>
      <point x="232" y="1257" type="curve" smooth="yes"/>
      <point x="232" y="55" type="line" smooth="yes"/>
      <point x="232" y="9"/>
      <point x="250" y="-10"/>
      <point x="306" y="-10" type="curve" smooth="yes"/>
      <point x="308" y="-10" type="line" smooth="yes"/>
      <point x="364" y="-10"/>
      <point x="382" y="9"/>
      <point x="382" y="55" type="curve" smooth="yes"/>
      <point x="382" y="1257" type="line" smooth="yes"/>
      <point x="382" y="1303"/>
      <point x="364" y="1322"/>
      <point x="308" y="1322" type="curve" smooth="yes"/>
    </contour>
    <contour>
      <point x="491" y="496" type="line"/>
      <point x="938" y="3" type="line" smooth="yes"/>
      <point x="962" y="-24"/>
      <point x="991" y="-22"/>
      <point x="1038" y="5" type="curve" smooth="yes"/>
      <point x="1087" y="33"/>
      <point x="1091" y="61"/>
      <point x="1060" y="95" type="curve" smooth="yes"/>
      <point x="613" y="584" type="line"/>
    </contour>
  </outline>
</glyph>
<glyph name="l" format="1">
  <advance width="1228"/>
  <unicode hex="006C"/>
  <outline>
    <contour>
      <point x="553" y="1312" type="line"/>
      <point x="553" y="106" type="line"/>
      <point x="703" y="106" type="line"/>
      <point x="703" y="1244" type="line" smooth="yes"/>
      <point x="703" y="1294"/>
      <point x="685" y="1312"/>
      <point x="640" y="1312" type="curve" smooth="yes"/>
    </contour>
    <contour>
      <point x="240" y="144" type="line" smooth="yes"/>
      <point x="195" y="144"/>
      <point x="177" y="124"/>
      <point x="177" y="72" type="curve" smooth="yes"/>
      <point x="177" y="20"/>
      <point x="195" y="0"/>
      <point x="240" y="0" type="curve" smooth="yes"/>
      <point x="1024" y="0" type="line" smooth="yes"/>
      <point x="1069" y="0"/>
      <point x="1087" y="20"/>
      <point x="1087" y="72" type="curve" smooth="yes"/>
      <point x="1087" y="124"/>
      <point x="1069" y="144"/>
      <point x="1024" y="144" type="curve" smooth="yes"/>
    </contour>
    <contour>
      <point x="280" y="1312" type="line" smooth="yes"/>
      <point x="235" y="1312"/>
      <point x="217" y="1292"/>
      <point x="217" y="1240" type="curve" smooth="yes"/>
      <point x="217" y="1188"/>
      <point x="235" y="1168"/>
      <point x="280" y="1168" type="curve" smooth="yes"/>
      <point x="614" y="1168" type="line"/>
      <point x="614" y="1312" type="line"/>
    </contour>
  </outline>
</glyph>
<glyph name="p" format="1">
  <advance width="1228"/>
  <unicode hex="0070"/>
  <outline>
    <contour>
      <point x="526" y="946"/>
      <point x="414" y="883"/>
      <point x="332" y="776" type="curve"/>
      <point x="332" y="869" type="line" smooth="yes"/>
      <point x="332" y="915"/>
      <point x="316" y="934"/>
      <point x="263" y="934" type="curve" smooth="yes"/>
      <point x="261" y="934" type="line" smooth="yes"/>
      <point x="208" y="934"/>
      <point x="192" y="915"/>
      <point x="192" y="869" type="curve" smooth="yes"/>
      <point x="192" y="-333" type="line" smooth="yes"/>
      <point x="192" y="-379"/>
      <point x="210" y="-398"/>
      <point x="266" y="-398" type="curve" smooth="yes"/>
      <point x="268" y="-398" type="line" smooth="yes"/>
      <point x="324" y="-398"/>
      <point x="342" y="-379"/>
      <point x="342" y="-333" type="curve" smooth="yes"/>
      <point x="342" y="143" type="line"/>
      <point x="422" y="41"/>
      <point x="526" y="-22"/>
      <point x="659" y="-22" type="curve" smooth="yes"/>
      <point x="906" y="-22"/>
      <point x="1089" y="160"/>
      <point x="1089" y="462" type="curve" smooth="yes"/>
      <point x="1089" y="764"/>
      <point x="906" y="946"/>
      <point x="659" y="946" type="curve" smooth="yes"/>
    </contour>
    <contour>
      <point x="830" y="798"/>
      <point x="935" y="658"/>
      <point x="935" y="462" type="curve" smooth="yes"/>
      <point x="935" y="266"/>
      <point x="830" y="126"/>
      <point x="649" y="126" type="curve" smooth="yes"/>
      <point x="472" y="126"/>
      <point x="342" y="250"/>
      <point x="342" y="462" type="curve" smooth="yes"/>
      <point x="342" y="674"/>
      <point x="472" y="798"/>
      <point x="649" y="798" type="curve" smooth="yes"/>
    </contour>
  </outline>
</glyph>
<glyph name="q" format="1">
  <advance width="1228"/>
  <unicode hex="0071"/>
  <outline>
    <contour>
      <point x="322" y="946"/>
      <point x="139" y="764"/>
      <point x="139" y="462" type="curve" smooth="yes"/>
      <point x="139" y="160"/>
      <point x="322" y="-22"/>
      <point x="569" y="-22" type="curve" smooth="yes"/>
      <point x="702" y="-22"/>
      <point x="806" y="41"/>
      <point x="886" y="143" type="curve"/>
      <point x="886" y="-333" type="line" smooth="yes"/>
      <point x="886" y="-379"/>
      <point x="904" y="-398"/>
      <point x="960" y="-398" type="curve" smooth="yes"/>
      <point x="962" y="-398" type="line" smooth="yes"/>
      <point x="1018" y="-398"/>
      <point x="1036" y="-379"/>
      <point x="1036" y="-333" type="curve" smooth="yes"/>
      <point x="1036" y="869" type="line" smooth="yes"/>
      <point x="1036" y="915"/>
      <point x="1020" y="934"/>
      <point x="967" y="934" type="curve" smooth="yes"/>
      <point x="965" y="934" type="line" smooth="yes"/>
      <point x="912" y="934"/>
      <point x="896" y="915"/>
      <point x="896" y="869" type="curve" smooth="yes"/>
      <point x="896" y="776" type="line"/>
      <point x="814" y="883"/>
      <point x="702" y="946"/>
      <point x="569" y="946" type="curve" smooth="yes"/>
    </contour>
    <contour>
      <point x="756" y="798"/>
      <point x="886" y="674"/>
      <point x="886" y="462" type="curve" smooth="yes"/>
      <point x="886" y="250"/>
      <point x="756" y="126"/>
      <point x="579" y="126" type="curve" smooth="yes"/>
      <point x="398" y="126"/>
      <point x="293" y="266"/>
      <point x="293" y="462" type="curve" smooth="yes"/>
      <point x="293" y="658"/>
      <point x="398" y="798"/>
      <point x="579" y="798" type="curve" smooth="yes"/>
    </contour>
  </outline>
</glyph>
<glyph name="r" format="1">
  <advance width="1228"/>
  <unicode hex="0072"/>
  <outline>
    <contour>
      <point x="376" y="934" type="line" smooth="yes"/>
      <point x="323" y="934"/>
      <point x="307" y="915"/>
      <point x="307" y="869" type="curve" smooth="yes"/>
      <point x="307" y="55" type="line" smooth="yes"/>
      <point x="307" y="9"/>
      <point x="325" y="-10"/>
      <point x="381" y="-10" type="curve" smooth="yes"/>
      <point x="383" y="-10" type="line" smooth="yes"/>
      <point x="439" y="-10"/>
      <point x="457" y="9"/>
      <point x="457" y="55" type="curve" smooth="yes"/>
      <point x="457" y="270" type="line" smooth="yes"/>
      <point x="457" y="599"/>
      <point x="733" y="857"/>
      <point x="1006" y="768" type="curve" smooth="yes"/>
      <point x="1048" y="754"/>
      <point x="1068" y="778"/>
      <point x="1081" y="830" type="curve" smooth="yes"/>
      <point x="1093" y="880"/>
      <point x="1079" y="911"/>
      <point x="1036" y="925" type="curve" smooth="yes"/>
      <point x="809" y="999"/>
      <point x="588" y="875"/>
      <point x="447" y="634" type="curve"/>
      <point x="447" y="869" type="line" smooth="yes"/>
      <point x="447" y="915"/>
      <point x="431" y="934"/>
      <point x="378" y="934" type="curve" smooth="yes"/>
    </contour>
  </outline>
</glyph>
<glyph name="s" format="1">
  <advance width="1228"/>
  <unicode hex="0073"/>
  <outline>
    <contour>
      <point x="913" y="-22"/>
      <point x="1048" y="98"/>
      <point x="1048" y="277" type="curve" smooth="yes"/>
      <point x="1048" y="403"/>
      <point x="979" y="467"/>
      <point x="884" y="502" type="curve" smooth="yes"/>
      <point x="738" y="556"/>
      <point x="532" y="542"/>
      <point x="421" y="578" type="curve" smooth="yes"/>
      <point x="374" y="593"/>
      <point x="344" y="617"/>
      <point x="344" y="660" type="curve" smooth="yes"/>
      <point x="344" y="753"/>
      <point x="431" y="801"/>
      <point x="570" y="801" type="curve" smooth="yes"/>
      <point x="689" y="801"/>
      <point x="806" y="772"/>
      <point x="912" y="718" type="curve" smooth="yes"/>
      <point x="945" y="701"/>
      <point x="973" y="707"/>
      <point x="996" y="759" type="curve" smooth="yes"/>
      <point x="1018" y="809"/>
      <point x="1004" y="840"/>
      <point x="966" y="859" type="curve" smooth="yes"/>
      <point x="845" y="920"/>
      <point x="706" y="946"/>
      <point x="564" y="946" type="curve" smooth="yes"/>
      <point x="352" y="946"/>
      <point x="190" y="849"/>
      <point x="190" y="660" type="curve" smooth="yes"/>
      <point x="190" y="544"/>
      <point x="252" y="483"/>
      <point x="340" y="448" type="curve" smooth="yes"/>
      <point x="485" y="391"/>
      <point x="698" y="406"/>
      <point x="813" y="367" type="curve" smooth="yes"/>
      <point x="863" y="350"/>
      <point x="894" y="324"/>
      <point x="894" y="277" type="curve" smooth="yes"/>
      <point x="894" y="186"/>
      <point x="813" y="123"/>
      <point x="644" y="123" type="curve" smooth="yes"/>
      <point x="512" y="123"/>
      <point x="384" y="156"/>
      <point x="275" y="217" type="curve" smooth="yes"/>
      <point x="243" y="235"/>
      <point x="215" y="230"/>
      <point x="190" y="179" type="curve" smooth="yes"/>
      <point x="166" y="130"/>
      <point x="179" y="99"/>
      <point x="217" y="78" type="curve" smooth="yes"/>
      <point x="345" y="8"/>
      <point x="492" y="-22"/>
      <point x="654" y="-22" type="curve" smooth="yes"/>
    </contour>
  </outline>
</glyph>
<glyph name="u" format="1">
  <advance width="1228"/>
  <unicode hex="0075"/>
  <outline>
    <contour>
      <point x="950" y="934" type="line" smooth="yes"/>
      <point x="894" y="934"/>
      <point x="876" y="915"/>
      <point x="876" y="869" type="curve" smooth="yes"/>
      <point x="876" y="532" type="line" smooth="yes"/>
      <point x="876" y="304"/>
      <point x="687" y="126"/>
      <point x="516" y="126" type="curve" smooth="yes"/>
      <point x="387" y="126"/>
      <point x="334" y="204"/>
      <point x="334" y="319" type="curve" smooth="yes"/>
      <point x="334" y="869" type="line" smooth="yes"/>
      <point x="334" y="915"/>
      <point x="316" y="934"/>
      <point x="260" y="934" type="curve" smooth="yes"/>
      <point x="258" y="934" type="line" smooth="yes"/>
      <point x="202" y="934"/>
      <point x="184" y="915"/>
      <point x="184" y="869" type="curve" smooth="yes"/>
      <point x="184" y="304" type="line" smooth="yes"/>
      <point x="184" y="104"/>
      <point x="297" y="-22"/>
      <point x="501" y="-22" type="curve" smooth="yes"/>
      <point x="647" y="-22"/>
      <point x="798" y="82"/>
      <point x="886" y="218" type="curve"/>
      <point x="886" y="55" type="line" smooth="yes"/>
      <point x="886" y="9"/>
      <point x="902" y="-10"/>
      <point x="955" y="-10" type="curve" smooth="yes"/>
      <point x="957" y="-10" type="line" smooth="yes"/>
      <point x="1010" y="-10"/>
      <point x="1026" y="9"/>
      <point x="1026" y="55" type="curve" smooth="yes"/>
      <point x="1026" y="869" type="line" smooth="yes"/>
      <point x="1026" y="915"/>
      <point x="1008" y="934"/>
      <point x="952" y="934" type="curve" smooth="yes"/>
    </contour>
  </outline>
</glyph>
<glyph name="y" format="1">
  <advance width="1228"/>
  <unicode hex="0079"/>
  <outline>
    <contour>
      <point x="999" y="946"/>
      <point x="975" y="937"/>
      <point x="954" y="894" type="curve" smooth="yes"/>
      <point x="615" y="211" type="line"/>
      <point x="274" y="894" type="line" smooth="yes"/>
      <point x="252" y="937"/>
      <point x="229" y="946"/>
      <point x="177" y="924" type="curve" smooth="yes"/>
      <point x="125" y="902"/>
      <point x="111" y="876"/>
      <point x="133" y="833" type="curve" smooth="yes"/>
      <point x="559" y="-15" type="line"/>
      <point x="571" y="125" type="line"/>
      <point x="359" y="-297" type="line" smooth="yes"/>
      <point x="337" y="-340"/>
      <point x="349" y="-366"/>
      <point x="401" y="-388" type="curve" smooth="yes"/>
      <point x="453" y="-410"/>
      <point x="475" y="-401"/>
      <point x="497" y="-358" type="curve" smooth="yes"/>
      <point x="1094" y="833" type="line" smooth="yes"/>
      <point x="1116" y="876"/>
      <point x="1103" y="902"/>
      <point x="1051" y="924" type="curve" smooth="yes"/>
    </contour>
  </outline>
</glyph>
<glyph name="braceleft" format="1">
  <advance width="1228"/>
  <unicode hex="007B"/>
  <outline>
    <contour>
      <point x="658" y="1372"/>
      <point x="484" y="1240"/>
      <point x="505" y="959" type="curve" smooth="yes"/>
      <point x="513" y="850" type="line" smooth="yes"/>
      <point x="526" y="677"/>
      <point x="443" y="613"/>
      <point x="240" y="613" type="curve" smooth="yes"/>
      <point x="195" y="613"/>
      <point x="177" y="593"/>
      <point x="177" y="541" type="curve" smooth="yes"/>
      <point x="177" y="489"/>
      <point x="195" y="469"/>
      <point x="240" y="469" type="curve" smooth="yes"/>
      <point x="433" y="469"/>
      <point x="530" y="416"/>
      <point x="517" y="243" type="curve" smooth="yes"/>
      <point x="505" y="80" type="line" smooth="yes"/>
      <point x="484" y="-201"/>
      <point x="658" y="-333"/>
      <point x="927" y="-333" type="curve" smooth="yes"/>
      <point x="972" y="-333"/>
      <point x="990" y="-313"/>
      <point x="990" y="-261" type="curve" smooth="yes"/>
      <point x="990" y="-209"/>
      <point x="972" y="-189"/>
      <point x="927" y="-189" type="curve" smooth="yes"/>
      <point x="735" y="-189"/>
      <point x="640" y="-105"/>
      <point x="655" y="92" type="curve" smooth="yes"/>
      <point x="667" y="253" type="line" smooth="yes"/>
      <point x="679" y="409"/>
      <point x="592" y="502"/>
      <point x="465" y="536" type="curve"/>
      <point x="465" y="546" type="line"/>
      <point x="593" y="590"/>
      <point x="678" y="675"/>
      <point x="664" y="840" type="curve" smooth="yes"/>
      <point x="655" y="947" type="line" smooth="yes"/>
      <point x="638" y="1143"/>
      <point x="725" y="1228"/>
      <point x="927" y="1228" type="curve" smooth="yes"/>
      <point x="972" y="1228"/>
      <point x="990" y="1248"/>
      <point x="990" y="1300" type="curve" smooth="yes"/>
      <point x="990" y="1352"/>
      <point x="972" y="1372"/>
      <point x="927" y="1372" type="curve" smooth="yes"/>
    </contour>
  </outline>
</glyph>
<glyph name="braceright" format="1">
  <advance width="1228"/>
  <unicode hex="007D"/>
  <outline>
    <contour>
      <point x="256" y="1372"/>
      <point x="238" y="1352"/>
      <point x="238" y="1300" type="curve" smooth="yes"/>
      <point x="238" y="1248"/>
      <point x="256" y="1228"/>
      <point x="301" y="1228" type="curve" smooth="yes"/>
      <point x="503" y="1228"/>
      <point x="590" y="1143"/>
      <point x="573" y="947" type="curve" smooth="yes"/>
      <point x="564" y="840" type="line" smooth="yes"/>
      <point x="550" y="675"/>
      <point x="635" y="590"/>
      <point x="763" y="546" type="curve"/>
      <point x="763" y="536" type="line"/>
      <point x="636" y="502"/>
      <point x="549" y="409"/>
      <point x="561" y="253" type="curve" smooth="yes"/>
      <point x="573" y="92" type="line" smooth="yes"/>
      <point x="588" y="-105"/>
      <point x="493" y="-189"/>
      <point x="301" y="-189" type="curve" smooth="yes"/>
      <point x="256" y="-189"/>
      <point x="238" y="-209"/>
      <point x="238" y="-261" type="curve" smooth="yes"/>
      <point x="238" y="-313"/>
      <point x="256" y="-333"/>
      <point x="301" y="-333" type="curve" smooth="yes"/>
      <point x="570" y="-333"/>
      <point x="744" y="-201"/>
      <point x="723" y="80" type="curve" smooth="yes"/>
      <point x="711" y="243" type="line" smooth="yes"/>
      <point x="698" y="416"/>
      <point x="795" y="469"/>
      <point x="988" y="469" type="curve" smooth="yes"/>
      <point x="1033" y="469"/>
      <point x="1051" y="489"/>
      <point x="1051" y="541" type="curve" smooth="yes"/>
      <point x="1051" y="593"/>
      <point x="1033" y="613"/>
      <point x="988" y="613" type="curve" smooth="yes"/>
      <point x="785" y="613"/>
      <point x="702" y="677"/>
      <point x="715" y="850" type="curve" smooth="yes"/>
      <point x="723" y="959" type="line" smooth="yes"/>
      <point x="744" y="1240"/>
      <point x="570" y="1372"/>
      <point x="301" y="1372" type="curve" smooth="yes"/>
    </contour>
  </outline>
</glyph>
<glyph name="dieresis" format="1">
  <advance width="1228"/>
  <unicode hex="00A8"/>
  <outline>
    <contour>
      <point x="499" y="1288" type="line" smooth="yes"/>
      <point x="499" y="1334"/>
      <point x="480" y="1353"/>
      <point x="404" y="1353" type="curve" smooth="yes"/>
      <point x="328" y="1353"/>
      <point x="309" y="1334"/>
      <point x="309" y="1288" type="curve" smooth="yes"/>
      <point x="309" y="1158" type="line" smooth="yes"/>
      <point x="309" y="1112"/>
      <point x="328" y="1093"/>
      <point x="404" y="1093" type="curve" smooth="yes"/>
      <point x="480" y="1093"/>
      <point x="499" y="1112"/>
      <point x="499" y="1158" type="curve" smooth="yes"/>
    </contour>
    <contour>
      <point x="919" y="1288" type="line" smooth="yes"/>
      <point x="919" y="1334"/>
      <point x="900" y="1353"/>
      <point x="824" y="1353" type="curve" smooth="yes"/>
      <point x="748" y="1353"/>
      <point x="729" y="1334"/>
      <point x="729" y="1288" type="curve" smooth="yes"/>
      <point x="729" y="1158" type="line" smooth="yes"/>
      <point x="729" y="1112"/>
      <point x="748" y="1093"/>
      <point x="824" y="1093" type="curve" smooth="yes"/>
      <point x="900" y="1093"/>
      <point x="919" y="1112"/>
      <point x="919" y="1158" type="curve" smooth="yes"/>
    </contour>
  </outline>
</glyph>
<glyph name="macron" format="1">
  <advance width="1228"/>
  <unicode hex="00AF"/>
  <outline>
    <contour>
      <point x="333" y="1250" type="line" smooth="yes"/>
      <point x="288" y="1250"/>
      <point x="270" y="1230"/>
      <point x="270" y="1178" type="curve" smooth="yes"/>
      <point x="270" y="1126"/>
      <point x="288" y="1106"/>
      <point x="333" y="1106" type="curve" smooth="yes"/>
      <point x="895" y="1106" type="line" smooth="yes"/>
      <point x="940" y="1106"/>
      <point x="958" y="1126"/>
      <point x="958" y="1178" type="curve" smooth="yes"/>
      <point x="958" y="1230"/>
      <point x="940" y="1250"/>
      <point x="895" y="1250" type="curve" smooth="yes"/>
    </contour>
  </outline>
</glyph>
<glyph name="twosuperior" format="1">
  <advance width="1228"/>
  <unicode hex="00B2"/>
  <outline>
    <contour>
      <point x="522" y="1334"/>
      <point x="415" y="1309"/>
      <point x="332" y="1264" type="curve" smooth="yes"/>
      <point x="305" y="1249"/>
      <point x="306" y="1216"/>
      <point x="319" y="1184" type="curve" smooth="yes"/>
      <point x="332" y="1151"/>
      <point x="356" y="1129"/>
      <point x="386" y="1144" type="curve" smooth="yes"/>
      <point x="451" y="1177"/>
      <point x="535" y="1205"/>
      <point x="607" y="1205" type="curve" smooth="yes"/>
      <point x="708" y="1205"/>
      <point x="761" y="1154"/>
      <point x="761" y="1078" type="curve" smooth="yes"/>
      <point x="761" y="1010"/>
      <point x="723" y="961"/>
      <point x="651" y="900" type="curve" smooth="yes"/>
      <point x="319" y="620" type="line" smooth="yes"/>
      <point x="300" y="604"/>
      <point x="288" y="584"/>
      <point x="288" y="555" type="curve" smooth="yes"/>
      <point x="288" y="509"/>
      <point x="303" y="483"/>
      <point x="335" y="483" type="curve" smooth="yes"/>
      <point x="886" y="483" type="line" smooth="yes"/>
      <point x="918" y="483"/>
      <point x="935" y="501"/>
      <point x="935" y="546" type="curve" smooth="yes"/>
      <point x="935" y="591"/>
      <point x="918" y="608"/>
      <point x="886" y="608" type="curve" smooth="yes"/>
      <point x="499" y="608" type="line"/>
      <point x="738" y="806" type="line" smooth="yes"/>
      <point x="844" y="894"/>
      <point x="901" y="971"/>
      <point x="901" y="1078" type="curve" smooth="yes"/>
      <point x="901" y="1233"/>
      <point x="794" y="1334"/>
      <point x="616" y="1334" type="curve" smooth="yes"/>
    </contour>
  </outline>
</glyph>
<glyph name="threesuperior" format="1">
  <advance width="1228"/>
  <unicode hex="00B3"/>
  <outline>
    <contour>
      <point x="510" y="1334"/>
      <point x="411" y="1312"/>
      <point x="333" y="1270" type="curve" smooth="yes"/>
      <point x="307" y="1256"/>
      <point x="306" y="1224"/>
      <point x="319" y="1192" type="curve" smooth="yes"/>
      <point x="336" y="1149"/>
      <point x="362" y="1137"/>
      <point x="387" y="1150" type="curve" smooth="yes"/>
      <point x="452" y="1183"/>
      <point x="521" y="1205"/>
      <point x="593" y="1205" type="curve" smooth="yes"/>
      <point x="695" y="1205"/>
      <point x="759" y="1165"/>
      <point x="759" y="1086" type="curve" smooth="yes"/>
      <point x="759" y="999"/>
      <point x="697" y="965"/>
      <point x="589" y="965" type="curve" smooth="yes"/>
      <point x="550" y="965" type="line" smooth="yes"/>
      <point x="518" y="965"/>
      <point x="506" y="937"/>
      <point x="506" y="902" type="curve" smooth="yes"/>
      <point x="506" y="866"/>
      <point x="518" y="840"/>
      <point x="550" y="840" type="curve" smooth="yes"/>
      <point x="602" y="840" type="line" smooth="yes"/>
      <point x="711" y="840"/>
      <point x="786" y="813"/>
      <point x="786" y="720" type="curve" smooth="yes"/>
      <point x="786" y="639"/>
      <point x="717" y="594"/>
      <point x="598" y="594" type="curve" smooth="yes"/>
      <point x="523" y="594"/>
      <point x="443" y="617"/>
      <point x="378" y="650" type="curve" smooth="yes"/>
      <point x="349" y="665"/>
      <point x="324" y="644"/>
      <point x="310" y="608" type="curve" smooth="yes"/>
      <point x="298" y="576"/>
      <point x="296" y="545"/>
      <point x="324" y="530" type="curve" smooth="yes"/>
      <point x="406" y="485"/>
      <point x="511" y="465"/>
      <point x="605" y="465" type="curve" smooth="yes"/>
      <point x="820" y="465"/>
      <point x="926" y="565"/>
      <point x="926" y="719" type="curve" smooth="yes"/>
      <point x="926" y="820"/>
      <point x="872" y="886"/>
      <point x="787" y="915" type="curve"/>
      <point x="858" y="953"/>
      <point x="899" y="1012"/>
      <point x="899" y="1096" type="curve" smooth="yes"/>
      <point x="899" y="1236"/>
      <point x="788" y="1334"/>
      <point x="604" y="1334" type="curve" smooth="yes"/>
    </contour>
  </outline>
</glyph>
<glyph name="cedilla" format="1">
  <advance width="1228"/>
  <unicode hex="00B8"/>
  <outline>
    <contour>
      <point x="532" y="28" type="line"/>
      <point x="532" y="-175" type="line" smooth="yes"/>
      <point x="532" y="-210"/>
      <point x="550" y="-220"/>
      <point x="568" y="-219" type="curve" smooth="yes"/>
      <point x="680" y="-211"/>
      <point x="716" y="-237"/>
      <point x="716" y="-285" type="curve" smooth="yes"/>
      <point x="716" y="-327"/>
      <point x="677" y="-349"/>
      <point x="611" y="-349" type="curve" smooth="yes"/>
      <point x="544" y="-349"/>
      <point x="470" y="-335"/>
      <point x="418" y="-315" type="curve" smooth="yes"/>
      <point x="393" y="-306"/>
      <point x="371" y="-325"/>
      <point x="359" y="-357" type="curve" smooth="yes"/>
      <point x="348" y="-387"/>
      <point x="349" y="-412"/>
      <point x="374" y="-424" type="curve" smooth="yes"/>
      <point x="443" y="-456"/>
      <point x="532" y="-472"/>
      <point x="621" y="-472" type="curve" smooth="yes"/>
      <point x="788" y="-472"/>
      <point x="866" y="-393"/>
      <point x="866" y="-281" type="curve" smooth="yes"/>
      <point x="866" y="-187"/>
      <point x="797" y="-110"/>
      <point x="661" y="-113" type="curve"/>
      <point x="661" y="28" type="line"/>
    </contour>
  </outline>
</glyph>
<glyph name="onehalf" format="1">
  <advance width="1228"/>
  <unicode hex="00BD"/>
  <outline>
    <contour>
      <point x="865" y="494"/>
      <point x="776" y="473"/>
      <point x="706" y="435" type="curve" smooth="yes"/>
      <point x="684" y="423"/>
      <point x="685" y="395"/>
      <point x="695" y="368" type="curve" smooth="yes"/>
      <point x="706" y="341"/>
      <point x="726" y="323"/>
      <point x="751" y="335" type="curve" smooth="yes"/>
      <point x="806" y="363"/>
      <point x="876" y="386"/>
      <point x="936" y="386" type="curve" smooth="yes"/>
      <point x="1020" y="386"/>
      <point x="1064" y="343"/>
      <point x="1064" y="280" type="curve" smooth="yes"/>
      <point x="1064" y="223"/>
      <point x="1033" y="182"/>
      <point x="973" y="132" type="curve" smooth="yes"/>
      <point x="695" y="-102" type="line" smooth="yes"/>
      <point x="679" y="-115"/>
      <point x="669" y="-132"/>
      <point x="669" y="-156" type="curve" smooth="yes"/>
      <point x="669" y="-194"/>
      <point x="682" y="-216"/>
      <point x="709" y="-216" type="curve" smooth="yes"/>
      <point x="1169" y="-216" type="line" smooth="yes"/>
      <point x="1196" y="-216"/>
      <point x="1210" y="-201"/>
      <point x="1210" y="-164" type="curve" smooth="yes"/>
      <point x="1210" y="-126"/>
      <point x="1196" y="-112"/>
      <point x="1169" y="-112" type="curve" smooth="yes"/>
      <point x="846" y="-112" type="line"/>
      <point x="1045" y="53" type="line" smooth="yes"/>
      <point x="1134" y="127"/>
      <point x="1181" y="191"/>
      <point x="1181" y="280" type="curve" smooth="yes"/>
      <point x="1181" y="409"/>
      <point x="1092" y="494"/>
      <point x="943" y="494" type="curve" smooth="yes"/>
    </contour>
    <contour>
      <point x="125" y="329" type="line" smooth="yes"/>
      <point x="106" y="317"/>
      <point x="106" y="290"/>
      <point x="125" y="264" type="curve" smooth="yes"/>
      <point x="144" y="238"/>
      <point x="168" y="230"/>
      <point x="185" y="240" type="curve" smooth="yes"/>
      <point x="1103" y="801" type="line" smooth="yes"/>
      <point x="1122" y="813"/>
      <point x="1122" y="840"/>
      <point x="1103" y="866" type="curve" smooth="yes"/>
      <point x="1084" y="892"/>
      <point x="1060" y="900"/>
      <point x="1043" y="890" type="curve" smooth="yes"/>
    </contour>
    <contour>
      <point x="213" y="788" type="line"/>
      <point x="43" y="788" type="line" smooth="yes"/>
      <point x="16" y="788"/>
      <point x="1" y="774"/>
      <point x="1" y="736" type="curve" smooth="yes"/>
      <point x="1" y="699"/>
      <point x="16" y="684"/>
      <point x="43" y="684" type="curve" smooth="yes"/>
      <point x="488" y="684" type="line" smooth="yes"/>
      <point x="515" y="684"/>
      <point x="529" y="699"/>
      <point x="529" y="736" type="curve" smooth="yes"/>
      <point x="529" y="774"/>
      <point x="515" y="788"/>
      <point x="488" y="788" type="curve" smooth="yes"/>
      <point x="326" y="788" type="line"/>
      <point x="326" y="1359" type="line" smooth="yes"/>
      <point x="326" y="1390"/>
      <point x="299" y="1399"/>
      <point x="271" y="1390" type="curve" smooth="yes"/>
      <point x="34" y="1314" type="line" smooth="yes"/>
      <point x="3" y="1304"/>
      <point x="-1" y="1283"/>
      <point x="9" y="1251" type="curve" smooth="yes"/>
      <point x="21" y="1218"/>
      <point x="39" y="1207"/>
      <point x="68" y="1217" type="curve" smooth="yes"/>
      <point x="213" y="1264" type="line"/>
    </contour>
  </outline>
</glyph>
<glyph name="Eth" format="1">
  <advance width="1228"/>
  <unicode hex="00D0"/>
  <outline>
    <contour>
      <point x="288" y="1187" type="line" smooth="yes"/>
      <point x="243" y="1187"/>
      <point x="225" y="1169"/>
      <point x="225" y="1119" type="curve" smooth="yes"/>
      <point x="225" y="68" type="line" smooth="yes"/>
      <point x="225" y="18"/>
      <point x="243" y="0"/>
      <point x="288" y="0" type="curve"/>
      <point x="594" y="0" type="line" smooth="yes"/>
      <point x="909" y="0"/>
      <point x="1120" y="223"/>
      <point x="1120" y="593" type="curve" smooth="yes"/>
      <point x="1120" y="963"/>
      <point x="909" y="1187"/>
      <point x="594" y="1187" type="curve" smooth="yes"/>
    </contour>
    <contour>
      <point x="113" y="684" type="line" smooth="yes"/>
      <point x="68" y="684"/>
      <point x="50" y="664"/>
      <point x="50" y="612" type="curve" smooth="yes"/>
      <point x="50" y="560"/>
      <point x="68" y="540"/>
      <point x="113" y="540" type="curve" smooth="yes"/>
      <point x="595" y="540" type="line" smooth="yes"/>
      <point x="640" y="540"/>
      <point x="658" y="560"/>
      <point x="658" y="612" type="curve" smooth="yes"/>
      <point x="658" y="664"/>
      <point x="640" y="684"/>
      <point x="595" y="684" type="curve" smooth="yes"/>
    </contour>
    <contour>
      <point x="812" y="1043"/>
      <point x="966" y="891"/>
      <point x="966" y="593" type="curve" smooth="yes"/>
      <point x="966" y="295"/>
      <point x="812" y="144"/>
      <point x="575" y="144" type="curve" smooth="yes"/>
      <point x="375" y="144" type="line"/>
      <point x="375" y="1043" type="line"/>
      <point x="575" y="1043" type="line" smooth="yes"/>
    </contour>
  </outline>
</glyph>
<glyph name="Thorn" format="1">
  <advance width="1228"/>
  <unicode hex="00DE"/>
  <outline>
    <contour>
      <point x="329" y="946" type="line"/>
      <point x="329" y="802" type="line"/>
      <point x="659" y="802" type="line" smooth="yes"/>
      <point x="826" y="802"/>
      <point x="904" y="719"/>
      <point x="904" y="598" type="curve" smooth="yes"/>
      <point x="904" y="469"/>
      <point x="816" y="398"/>
      <point x="659" y="398" type="curve" smooth="yes"/>
      <point x="329" y="398" type="line"/>
      <point x="329" y="254" type="line"/>
      <point x="680" y="254" type="line" smooth="yes"/>
      <point x="930" y="254"/>
      <point x="1062" y="403"/>
      <point x="1062" y="598" type="curve" smooth="yes"/>
      <point x="1062" y="794"/>
      <point x="930" y="946"/>
      <point x="680" y="946" type="curve" smooth="yes"/>
    </contour>
    <contour>
      <point x="309" y="1197" type="line"/>
      <point x="253" y="1197"/>
      <point x="235" y="1178"/>
      <point x="235" y="1132" type="curve" smooth="yes"/>
      <point x="235" y="55" type="line" smooth="yes"/>
      <point x="235" y="9"/>
      <point x="253" y="-10"/>
      <point x="309" y="-10" type="curve"/>
      <point x="311" y="-10" type="line"/>
      <point x="367" y="-10"/>
      <point x="385" y="9"/>
      <point x="385" y="55" type="curve" smooth="yes"/>
      <point x="385" y="1132" type="line" smooth="yes"/>
      <point x="385" y="1178"/>
      <point x="367" y="1197"/>
      <point x="311" y="1197" type="curve"/>
    </contour>
  </outline>
</glyph>
<glyph name="Aogonek" format="1">
  <advance width="1228"/>
  <unicode hex="0104"/>
  <outline>
    <contour>
      <point x="549" y="1209"/>
      <point x="517" y="1191"/>
      <point x="500" y="1144" type="curve" smooth="yes"/>
      <point x="106" y="84" type="line" smooth="yes"/>
      <point x="90" y="40"/>
      <point x="103" y="16"/>
      <point x="157" y="-2" type="curve" smooth="yes"/>
      <point x="210" y="-20"/>
      <point x="235" y="-8"/>
      <point x="251" y="36" type="curve" smooth="yes"/>
      <point x="396" y="427" type="line"/>
      <point x="406" y="456" type="line"/>
      <point x="610" y="1043" type="line"/>
      <point x="614" y="1043" type="line"/>
      <point x="818" y="455" type="line"/>
      <point x="828" y="427" type="line"/>
      <point x="973" y="35" type="line"/>
      <point x="844" y="-66"/>
      <point x="766" y="-170"/>
      <point x="766" y="-281" type="curve" smooth="yes"/>
      <point x="766" y="-397"/>
      <point x="842" y="-472"/>
      <point x="966" y="-472" type="curve" smooth="yes"/>
      <point x="1028" y="-472"/>
      <point x="1084" y="-462"/>
      <point x="1130" y="-446" type="curve" smooth="yes"/>
      <point x="1159" y="-436"/>
      <point x="1168" y="-415"/>
      <point x="1162" y="-374" type="curve" smooth="yes"/>
      <point x="1157" y="-337"/>
      <point x="1138" y="-322"/>
      <point x="1112" y="-326" type="curve" smooth="yes"/>
      <point x="1077" y="-332"/>
      <point x="1038" y="-336"/>
      <point x="999" y="-336" type="curve" smooth="yes"/>
      <point x="954" y="-336"/>
      <point x="922" y="-310"/>
      <point x="922" y="-261" type="curve" smooth="yes"/>
      <point x="922" y="-184"/>
      <point x="975" y="-101"/>
      <point x="1110" y="20" type="curve" smooth="yes"/>
      <point x="1126" y="35"/>
      <point x="1128" y="56"/>
      <point x="1118" y="84" type="curve" smooth="yes"/>
      <point x="724" y="1144" type="line" smooth="yes"/>
      <point x="707" y="1191"/>
      <point x="675" y="1209"/>
      <point x="612" y="1209" type="curve" smooth="yes"/>
    </contour>
    <contour>
      <point x="335" y="474" type="line"/>
      <point x="335" y="330" type="line"/>
      <point x="893" y="330" type="line"/>
      <point x="893" y="474" type="line"/>
    </contour>
  </outline>
</glyph>
<glyph name="hbar" format="1">
  <advance width="1228"/>
  <unicode hex="0127"/>
  <outline>
    <contour>
      <point x="296" y="1322" type="line" smooth="yes"/>
      <point x="240" y="1322"/>
      <point x="222" y="1303"/>
      <point x="222" y="1257" type="curve" smooth="yes"/>
      <point x="222" y="55" type="line" smooth="yes"/>
      <point x="222" y="9"/>
      <point x="240" y="-10"/>
      <point x="296" y="-10" type="curve" smooth="yes"/>
      <point x="298" y="-10" type="line" smooth="yes"/>
      <point x="354" y="-10"/>
      <point x="372" y="9"/>
      <point x="372" y="55" type="curve" smooth="yes"/>
      <point x="372" y="352" type="line" smooth="yes"/>
      <point x="372" y="568"/>
      <point x="546" y="738"/>
      <point x="702" y="738" type="curve" smooth="yes"/>
      <point x="824" y="738"/>
      <point x="874" y="660"/>
      <point x="874" y="545" type="curve" smooth="yes"/>
      <point x="874" y="55" type="line" smooth="yes"/>
      <point x="874" y="9"/>
      <point x="892" y="-10"/>
      <point x="948" y="-10" type="curve" smooth="yes"/>
      <point x="950" y="-10" type="line" smooth="yes"/>
      <point x="1006" y="-10"/>
      <point x="1024" y="9"/>
      <point x="1024" y="55" type="curve" smooth="yes"/>
      <point x="1024" y="560" type="line" smooth="yes"/>
      <point x="1024" y="760"/>
      <point x="915" y="886"/>
      <point x="717" y="886" type="curve" smooth="yes"/>
      <point x="578" y="886"/>
      <point x="431" y="787"/>
      <point x="346" y="639" type="curve"/>
      <point x="372" y="613" type="line"/>
      <point x="372" y="1257" type="line" smooth="yes"/>
      <point x="372" y="1303"/>
      <point x="354" y="1322"/>
      <point x="298" y="1322" type="curve" smooth="yes"/>
    </contour>
    <contour>
      <point x="83" y="1150" type="line" smooth="yes"/>
      <point x="38" y="1150"/>
      <point x="20" y="1130"/>
      <point x="20" y="1078" type="curve" smooth="yes"/>
      <point x="20" y="1026"/>
      <point x="38" y="1006"/>
      <point x="83" y="1006" type="curve" smooth="yes"/>
      <point x="625" y="1006" type="line" smooth="yes"/>
      <point x="670" y="1006"/>
      <point x="688" y="1026"/>
      <point x="688" y="1078" type="curve" smooth="yes"/>
      <point x="688" y="1130"/>
      <point x="670" y="1150"/>
      <point x="625" y="1150" type="curve" smooth="yes"/>
    </contour>
  </outline>
</glyph>
<glyph name="ij" format="1">
  <advance width="1228"/>
  <unicode hex="0133"/>
  <outline>
    <contour>
      <point x="910" y="934" type="line" smooth="yes"/>
      <point x="854" y="934"/>
      <point x="836" y="915"/>
      <point x="836" y="869" type="curve" smooth="yes"/>
      <point x="836" y="-105" type="line" smooth="yes"/>
      <point x="836" y="-218"/>
      <point x="796" y="-262"/>
      <point x="714" y="-262" type="curve" smooth="yes"/>
      <point x="654" y="-262"/>
      <point x="590" y="-246"/>
      <point x="539" y="-221" type="curve" smooth="yes"/>
      <point x="511" y="-207"/>
      <point x="477" y="-209"/>
      <point x="454" y="-263" type="curve" smooth="yes"/>
      <point x="433" y="-313"/>
      <point x="444" y="-341"/>
      <point x="482" y="-360" type="curve" smooth="yes"/>
      <point x="549" y="-393"/>
      <point x="644" y="-410"/>
      <point x="713" y="-410" type="curve" smooth="yes"/>
      <point x="889" y="-410"/>
      <point x="986" y="-314"/>
      <point x="986" y="-135" type="curve" smooth="yes"/>
      <point x="986" y="869" type="line" smooth="yes"/>
      <point x="986" y="915"/>
      <point x="968" y="934"/>
      <point x="912" y="934" type="curve" smooth="yes"/>
    </contour>
    <contour>
      <point x="316" y="934" type="line" smooth="yes"/>
      <point x="260" y="934"/>
      <point x="242" y="915"/>
      <point x="242" y="869" type="curve" smooth="yes"/>
      <point x="242" y="55" type="line" smooth="yes"/>
      <point x="242" y="9"/>
      <point x="260" y="-10"/>
      <point x="316" y="-10" type="curve" smooth="yes"/>
      <point x="318" y="-10" type="line" smooth="yes"/>
      <point x="374" y="-10"/>
      <point x="392" y="9"/>
      <point x="392" y="55" type="curve" smooth="yes"/>
      <point x="392" y="869" type="line" smooth="yes"/>
      <point x="392" y="915"/>
      <point x="374" y="934"/>
      <point x="318" y="934" type="curve" smooth="yes"/>
    </contour>
    <contour>
      <point x="241" y="1363"/>
      <point x="222" y="1344"/>
      <point x="222" y="1298" type="curve" smooth="yes"/>
      <point x="222" y="1168" type="line" smooth="yes"/>
      <point x="222" y="1122"/>
      <point x="241" y="1103"/>
      <point x="317" y="1103" type="curve" smooth="yes"/>
      <point x="393" y="1103"/>
      <point x="412" y="1122"/>
      <point x="412" y="1168" type="curve" smooth="yes"/>
      <point x="412" y="1298" type="line" smooth="yes"/>
      <point x="412" y="1344"/>
      <point x="393" y="1363"/>
      <point x="317" y="1363" type="curve" smooth="yes"/>
    </contour>
    <contour>
      <point x="835" y="1363"/>
      <point x="816" y="1344"/>
      <point x="816" y="1298" type="curve" smooth="yes"/>
      <point x="816" y="1168" type="line" smooth="yes"/>
      <point x="816" y="1122"/>
      <point x="835" y="1103"/>
      <point x="911" y="1103" type="curve" smooth="yes"/>
      <point x="987" y="1103"/>
      <point x="1006" y="1122"/>
      <point x="1006" y="1168" type="curve" smooth="yes"/>
      <point x="1006" y="1298" type="line" smooth="yes"/>
      <point x="1006" y="1344"/>
      <point x="987" y="1363"/>
      <point x="911" y="1363" type="curve" smooth="yes"/>
    </contour>
  </outline>
</glyph>
<glyph name="Eng" format="1">
  <advance width="1228"/>
  <unicode hex="014A"/>
  <outline>
    <contour>
      <point x="979" y="1197" type="line" smooth="yes"/>
      <point x="925" y="1197"/>
      <point x="907" y="1178"/>
      <point x="907" y="1132" type="curve" smooth="yes"/>
      <point x="907" y="287" type="line"/>
      <point x="903" y="287" type="line"/>
      <point x="339" y="1169" type="line" smooth="yes"/>
      <point x="327" y="1187"/>
      <point x="306" y="1197"/>
      <point x="277" y="1197" type="curve" smooth="yes"/>
      <point x="250" y="1197" type="line" smooth="yes"/>
      <point x="194" y="1197"/>
      <point x="175" y="1178"/>
      <point x="175" y="1132" type="curve" smooth="yes"/>
      <point x="175" y="55" type="line" smooth="yes"/>
      <point x="175" y="9"/>
      <point x="193" y="-10"/>
      <point x="247" y="-10" type="curve" smooth="yes"/>
      <point x="249" y="-10" type="line" smooth="yes"/>
      <point x="303" y="-10"/>
      <point x="321" y="9"/>
      <point x="321" y="55" type="curve" smooth="yes"/>
      <point x="321" y="921" type="line"/>
      <point x="325" y="921" type="line"/>
      <point x="903" y="19" type="line"/>
      <point x="903" y="-107" type="line" smooth="yes"/>
      <point x="903" y="-220"/>
      <point x="863" y="-264"/>
      <point x="781" y="-264" type="curve" smooth="yes"/>
      <point x="721" y="-264"/>
      <point x="657" y="-246"/>
      <point x="604" y="-224" type="curve" smooth="yes"/>
      <point x="575" y="-212"/>
      <point x="544" y="-212"/>
      <point x="521" y="-265" type="curve" smooth="yes"/>
      <point x="499" y="-315"/>
      <point x="511" y="-343"/>
      <point x="549" y="-360" type="curve" smooth="yes"/>
      <point x="617" y="-390"/>
      <point x="700" y="-410"/>
      <point x="780" y="-410" type="curve" smooth="yes"/>
      <point x="956" y="-410"/>
      <point x="1053" y="-314"/>
      <point x="1053" y="-135" type="curve" smooth="yes"/>
      <point x="1053" y="1132" type="line" smooth="yes"/>
      <point x="1053" y="1178"/>
      <point x="1035" y="1197"/>
      <point x="981" y="1197" type="curve" smooth="yes"/>
    </contour>
  </outline>
</glyph>
<glyph name="florin" format="1">
  <advance width="1228"/>
  <unicode hex="0192"/>
  <outline>
    <contour>
      <point x="711" y="1317"/>
      <point x="587" y="1202"/>
      <point x="566" y="997" type="curve" smooth="yes"/>
      <point x="471" y="54" type="line" smooth="yes"/>
      <point x="458" y="-74"/>
      <point x="390" y="-133"/>
      <point x="290" y="-133" type="curve" smooth="yes"/>
      <point x="235" y="-133"/>
      <point x="181" y="-124"/>
      <point x="118" y="-104" type="curve" smooth="yes"/>
      <point x="76" y="-90"/>
      <point x="51" y="-115"/>
      <point x="39" y="-159" type="curve" smooth="yes"/>
      <point x="26" y="-206"/>
      <point x="32" y="-235"/>
      <point x="74" y="-248" type="curve"/>
      <point x="140" y="-269"/>
      <point x="215" y="-279"/>
      <point x="285" y="-279" type="curve" smooth="yes"/>
      <point x="474" y="-279"/>
      <point x="598" y="-164"/>
      <point x="619" y="41" type="curve" smooth="yes"/>
      <point x="714" y="984" type="line" smooth="yes"/>
      <point x="727" y="1112"/>
      <point x="795" y="1171"/>
      <point x="895" y="1171" type="curve" smooth="yes"/>
      <point x="950" y="1171"/>
      <point x="1004" y="1162"/>
      <point x="1067" y="1142" type="curve" smooth="yes"/>
      <point x="1109" y="1128"/>
      <point x="1134" y="1153"/>
      <point x="1146" y="1197" type="curve" smooth="yes"/>
      <point x="1159" y="1244"/>
      <point x="1153" y="1273"/>
      <point x="1111" y="1286" type="curve" smooth="yes"/>
      <point x="1045" y="1307"/>
      <point x="970" y="1317"/>
      <point x="900" y="1317" type="curve" smooth="yes"/>
    </contour>
    <contour>
      <point x="340" y="848" type="line" smooth="yes"/>
      <point x="295" y="848"/>
      <point x="277" y="828"/>
      <point x="277" y="776" type="curve" smooth="yes"/>
      <point x="277" y="724"/>
      <point x="295" y="704"/>
      <point x="340" y="704" type="curve" smooth="yes"/>
      <point x="934" y="704" type="line" smooth="yes"/>
      <point x="979" y="704"/>
      <point x="997" y="724"/>
      <point x="997" y="776" type="curve" smooth="yes"/>
      <point x="997" y="828"/>
      <point x="979" y="848"/>
      <point x="934" y="848" type="curve" smooth="yes"/>
    </contour>
  </outline>
</glyph>
<glyph name="dotaccent" format="1">
  <advance width="1228"/>
  <unicode hex="02D9"/>
  <outline>
    <contour>
      <point x="709" y="1288" type="line" smooth="yes"/>
      <point x="709" y="1334"/>
      <point x="690" y="1353"/>
      <point x="614" y="1353" type="curve" smooth="yes"/>
      <point x="538" y="1353"/>
      <point x="519" y="1334"/>
      <point x="519" y="1288" type="curve" smooth="yes"/>
      <point x="519" y="1158" type="line" smooth="yes"/>
      <point x="519" y="1112"/>
      <point x="538" y="1093"/>
      <point x="614" y="1093" type="curve" smooth="yes"/>
      <point x="690" y="1093"/>
      <point x="709" y="1112"/>
      <point x="709" y="1158" type="curve" smooth="yes"/>
    </contour>
  </outline>
</glyph>
<glyph name="emdash" format="1">
  <advance width="1228"/>
  <unicode hex="2014"/>
  <outline>
    <contour>
      <point x="33" y="654" type="line" smooth="yes"/>
      <point x="-12" y="654"/>
      <point x="-30" y="634"/>
      <point x="-30" y="582" type="curve" smooth="yes"/>
      <point x="-30" y="530"/>
      <point x="-12" y="510"/>
      <point x="33" y="510" type="curve" smooth="yes"/>
      <point x="1195" y="510" type="line" smooth="yes"/>
      <point x="1240" y="510"/>
      <point x="1258" y="530"/>
      <point x="1258" y="582" type="curve" smooth="yes"/>
      <point x="1258" y="634"/>
      <point x="1240" y="654"/>
      <point x="1195" y="654" type="curve" smooth="yes"/>
    </contour>
  </outline>
</glyph>
<glyph name="daggerdbl" format="1">
  <advance width="1228"/>
  <unicode hex="2021"/>
  <outline>
    <contour>
      <point x="562" y="1209"/>
      <point x="542" y="1191"/>
      <point x="542" y="1146" type="curve" smooth="yes"/>
      <point x="542" y="284" type="line" smooth="yes"/>
      <point x="542" y="239"/>
      <point x="562" y="221"/>
      <point x="614" y="221" type="curve" smooth="yes"/>
      <point x="666" y="221"/>
      <point x="686" y="239"/>
      <point x="686" y="284" type="curve" smooth="yes"/>
      <point x="686" y="1146" type="line" smooth="yes"/>
      <point x="686" y="1191"/>
      <point x="666" y="1209"/>
      <point x="614" y="1209" type="curve" smooth="yes"/>
    </contour>
    <contour>
      <point x="353" y="600" type="line" smooth="yes"/>
      <point x="308" y="600"/>
      <point x="290" y="580"/>
      <point x="290" y="528" type="curve" smooth="yes"/>
      <point x="290" y="476"/>
      <point x="308" y="456"/>
      <point x="353" y="456" type="curve" smooth="yes"/>
      <point x="875" y="456" type="line" smooth="yes"/>
      <point x="920" y="456"/>
      <point x="938" y="476"/>
      <point x="938" y="528" type="curve" smooth="yes"/>
      <point x="938" y="580"/>
      <point x="920" y="600"/>
      <point x="875" y="600" type="curve" smooth="yes"/>
    </contour>
    <contour>
      <point x="353" y="974" type="line" smooth="yes"/>
      <point x="308" y="974"/>
      <point x="290" y="954"/>
      <point x="290" y="902" type="curve" smooth="yes"/>
      <point x="290" y="850"/>
      <point x="308" y="830"/>
      <point x="353" y="830" type="curve" smooth="yes"/>
      <point x="875" y="830" type="line" smooth="yes"/>
      <point x="920" y="830"/>
      <point x="938" y="850"/>
      <point x="938" y="902" type="curve" smooth="yes"/>
      <point x="938" y="954"/>
      <point x="920" y="974"/>
      <point x="875" y="974" type="curve" smooth="yes"/>
    </contour>
  </outline>
</glyph>
<glyph name="guilsinglleft" format="1">
  <advance width="1228"/>
  <unicode hex="2039"/>
  <outline>
    <contour>
      <point x="694" y="956"/>
      <point x="664" y="946"/>
      <point x="650" y="922" type="curve" smooth="yes"/>
      <point x="452" y="596" type="line" smooth="yes"/>
      <point x="443" y="581"/>
      <point x="443" y="563"/>
      <point x="452" y="548" type="curve" smooth="yes"/>
      <point x="650" y="222" type="line" smooth="yes"/>
      <point x="664" y="198"/>
      <point x="694" y="188"/>
      <point x="743" y="211" type="curve" smooth="yes"/>
      <point x="788" y="232"/>
      <point x="797" y="260"/>
      <point x="780" y="287" type="curve" smooth="yes"/>
      <point x="606" y="572" type="line"/>
      <point x="780" y="857" type="line" smooth="yes"/>
      <point x="797" y="884"/>
      <point x="788" y="912"/>
      <point x="743" y="933" type="curve" smooth="yes"/>
    </contour>
  </outline>
</glyph>
<glyph name="guilsinglright" format="1">
  <advance width="1228"/>
  <unicode hex="203A"/>
  <outline>
    <contour>
      <point x="440" y="912"/>
      <point x="431" y="884"/>
      <point x="448" y="857" type="curve" smooth="yes"/>
      <point x="622" y="572" type="line"/>
      <point x="448" y="287" type="line" smooth="yes"/>
      <point x="431" y="260"/>
      <point x="440" y="232"/>
      <point x="485" y="211" type="curve" smooth="yes"/>
      <point x="534" y="188"/>
      <point x="564" y="198"/>
      <point x="578" y="222" type="curve" smooth="yes"/>
      <point x="776" y="548" type="line" smooth="yes"/>
      <point x="785" y="563"/>
      <point x="785" y="581"/>
      <point x="776" y="596" type="curve" smooth="yes"/>
      <point x="578" y="922" type="line" smooth="yes"/>
      <point x="564" y="946"/>
      <point x="534" y="956"/>
      <point x="485" y="933" type="curve" smooth="yes"/>
    </contour>
  </outline>
</glyph>
<glyph name="Euro" format="1">
  <advance width="1228"/>
  <unicode hex="20AC"/>
  <outline>
    <contour>
      <point x="375" y="1209"/>
      <point x="200" y="964"/>
      <point x="200" y="594" type="curve" smooth="yes"/>
      <point x="200" y="224"/>
      <point x="375" y="-22"/>
      <point x="684" y="-22" type="curve" smooth="yes"/>
      <point x="817" y="-22"/>
      <point x="926" y="5"/>
      <point x="1047" y="74" type="curve" smooth="yes"/>
      <point x="1085" y="96"/>
      <point x="1094" y="128"/>
      <point x="1071" y="178" type="curve" smooth="yes"/>
      <point x="1047" y="230"/>
      <point x="1013" y="228"/>
      <point x="984" y="211" type="curve" smooth="yes"/>
      <point x="887" y="153"/>
      <point x="795" y="126"/>
      <point x="684" y="126" type="curve" smooth="yes"/>
      <point x="467" y="126"/>
      <point x="354" y="306"/>
      <point x="354" y="594" type="curve" smooth="yes"/>
      <point x="354" y="882"/>
      <point x="467" y="1061"/>
      <point x="684" y="1061" type="curve" smooth="yes"/>
      <point x="795" y="1061"/>
      <point x="887" y="1034"/>
      <point x="984" y="976" type="curve" smooth="yes"/>
      <point x="1013" y="959"/>
      <point x="1047" y="957"/>
      <point x="1071" y="1009" type="curve" smooth="yes"/>
      <point x="1094" y="1059"/>
      <point x="1085" y="1091"/>
      <point x="1047" y="1113" type="curve" smooth="yes"/>
      <point x="926" y="1182"/>
      <point x="817" y="1209"/>
      <point x="684" y="1209" type="curve" smooth="yes"/>
    </contour>
    <contour>
      <point x="123" y="514" type="line" smooth="yes"/>
      <point x="78" y="514"/>
      <point x="60" y="494"/>
      <point x="60" y="442" type="curve" smooth="yes"/>
      <point x="60" y="390"/>
      <point x="78" y="370"/>
      <point x="123" y="370" type="curve" smooth="yes"/>
      <point x="735" y="370" type="line" smooth="yes"/>
      <point x="780" y="370"/>
      <point x="798" y="390"/>
      <point x="798" y="442" type="curve" smooth="yes"/>
      <point x="798" y="494"/>
      <point x="780" y="514"/>
      <point x="735" y="514" type="curve" smooth="yes"/>
    </contour>
    <contour>
      <point x="123" y="824" type="line" smooth="yes"/>
      <point x="78" y="824"/>
      <point x="60" y="804"/>
      <point x="60" y="752" type="curve" smooth="yes"/>
      <point x="60" y="700"/>
      <point x="78" y="680"/>
      <point x="123" y="680" type="curve" smooth="yes"/>
      <point x="735" y="680" type="line" smooth="yes"/>
      <point x="780" y="680"/>
      <point x="798" y="700"/>
      <point x="798" y="752" type="curve" smooth="yes"/>
      <point x="798" y="804"/>
      <point x="780" y="824"/>
      <point x="735" y="824" type="curve" smooth="yes"/>
    </contour>
  </outline>
</glyph>
<glyph name="euro" format="1">
  <advance width="1228"/>
  <unicode hex="20AC"/>
  <outline>
    <contour>
      <point x="405" y="1209"/>
      <point x="230" y="964"/>
      <point x="230" y="594" type="curve" smooth="yes"/>
      <point x="230" y="224"/>
      <point x="405" y="-22"/>
      <point x="714" y="-22" type="curve" smooth="yes"/>
      <point x="847" y="-22"/>
      <point x="956" y="5"/>
      <point x="1077" y="74" type="curve" smooth="yes"/>
      <point x="1115" y="96"/>
      <point x="1124" y="128"/>
      <point x="1101" y="178" type="curve" smooth="yes"/>
      <point x="1077" y="230"/>
      <point x="1043" y="228"/>
      <point x="1014" y="211" type="curve" smooth="yes"/>
      <point x="917" y="153"/>
      <point x="825" y="126"/>
      <point x="714" y="126" type="curve" smooth="yes"/>
      <point x="497" y="126"/>
      <point x="384" y="306"/>
      <point x="384" y="594" type="curve" smooth="yes"/>
      <point x="384" y="882"/>
      <point x="497" y="1061"/>
      <point x="714" y="1061" type="curve" smooth="yes"/>
      <point x="825" y="1061"/>
      <point x="917" y="1034"/>
      <point x="1014" y="976" type="curve" smooth="yes"/>
      <point x="1043" y="959"/>
      <point x="1077" y="957"/>
      <point x="1101" y="1009" type="curve" smooth="yes"/>
      <point x="1124" y="1059"/>
      <point x="1115" y="1091"/>
      <point x="1077" y="1113" type="curve" smooth="yes"/>
      <point x="956" y="1182"/>
      <point x="847" y="1209"/>
      <point x="714" y="1209" type="curve" smooth="yes"/>
    </contour>
    <contour>
      <point x="153" y="514" type="line" smooth="yes"/>
      <point x="108" y="514"/>
      <point x="90" y="494"/>
      <point x="90" y="442" type="curve" smooth="yes"/>
      <point x="90" y="390"/>
      <point x="108" y="370"/>
      <point x="153" y="370" type="curve" smooth="yes"/>
      <point x="765" y="370" type="line" smooth="yes"/>
      <point x="810" y="370"/>
      <point x="828" y="390"/>
      <point x="828" y="442" type="curve" smooth="yes"/>
      <point x="828" y="494"/>
      <point x="810" y="514"/>
      <point x="765" y="514" type="curve" smooth="yes"/>
    </contour>
    <contour>
      <point x="153" y="824" type="line" smooth="yes"/>
      <point x="108" y="824"/>
      <point x="90" y="804"/>
      <point x="90" y="752" type="curve" smooth="yes"/>
      <point x="90" y="700"/>
      <point x="108" y="680"/>
      <point x="153" y="680" type="curve" smooth="yes"/>
      <point x="765" y="680" type="line" smooth="yes"/>
      <point x="810" y="680"/>
      <point x="828" y="700"/>
      <point x="828" y="752" type="curve" smooth="yes"/>
      <point x="828" y="804"/>
      <point x="810" y="824"/>
      <point x="765" y="824" type="curve" smooth="yes"/>
    </contour>
  </outline>
</glyph>
<glyph name="acute.alt" format="1">
  <advance width="1228"/>
  <outline>
    <contour>
      <point x="436" y="1132" type="line" smooth="yes"/>
      <point x="412" y="1112"/>
      <point x="408" y="1086"/>
      <point x="426" y="1056" type="curve" smooth="yes"/>
      <point x="444" y="1025"/>
      <point x="469" y="1019"/>
      <point x="496" y="1033" type="curve" smooth="yes"/>
      <point x="934" y="1270" type="line" smooth="yes"/>
      <point x="959" y="1283"/>
      <point x="966" y="1321"/>
      <point x="915" y="1384" type="curve" smooth="yes"/>
      <point x="860" y="1450"/>
      <point x="824" y="1455"/>
      <point x="794" y="1430" type="curve" smooth="yes"/>
    </contour>
  </outline>
</glyph>
<glyph name="acute.case" format="1">
  <advance width="1228"/>
  <outline>
    <contour>
      <point x="421" y="1403" type="line" smooth="yes"/>
      <point x="398" y="1390"/>
      <point x="393" y="1364"/>
      <point x="402" y="1341" type="curve" smooth="yes"/>
      <point x="411" y="1318"/>
      <point x="432" y="1301"/>
      <point x="457" y="1309" type="curve" smooth="yes"/>
      <point x="938" y="1472" type="line" smooth="yes"/>
      <point x="965" y="1481"/>
      <point x="977" y="1508"/>
      <point x="938" y="1579" type="curve" smooth="yes"/>
      <point x="896" y="1654"/>
      <point x="871" y="1652"/>
      <point x="837" y="1633" type="curve" smooth="yes"/>
    </contour>
    <contour>
      <point x="614" y="1187" type="move" name="_top"/>
    </contour>
  </outline>
</glyph>
<glyph name="circumflex.case" format="1">
  <advance width="1228"/>
  <outline>
    <contour>
      <point x="614" y="1468" type="line"/>
      <point x="893" y="1309" type="line" smooth="yes"/>
      <point x="916" y="1296"/>
      <point x="939" y="1309"/>
      <point x="952" y="1330" type="curve" smooth="yes"/>
      <point x="965" y="1351"/>
      <point x="967" y="1378"/>
      <point x="946" y="1396" type="curve" smooth="yes"/>
      <point x="669" y="1628" type="line" smooth="yes"/>
      <point x="654" y="1640"/>
      <point x="635" y="1646"/>
      <point x="614" y="1646" type="curve" smooth="yes"/>
      <point x="593" y="1646"/>
      <point x="574" y="1640"/>
      <point x="559" y="1628" type="curve" smooth="yes"/>
      <point x="282" y="1396" type="line" smooth="yes"/>
      <point x="261" y="1378"/>
      <point x="263" y="1351"/>
      <point x="276" y="1330" type="curve" smooth="yes"/>
      <point x="289" y="1309"/>
      <point x="312" y="1296"/>
      <point x="335" y="1309" type="curve" smooth="yes"/>
    </contour>
    <contour>
      <point x="614" y="1187" type="move" name="_top"/>
    </contour>
  </outline>
</glyph>
<glyph name="emdash.alt2" format="1">
  <advance width="2456"/>
  <outline>
    <contour>
      <point x="47" y="654" type="line" smooth="yes"/>
      <point x="2" y="654"/>
      <point x="-16" y="634"/>
      <point x="-16" y="582" type="curve" smooth="yes"/>
      <point x="-16" y="530"/>
      <point x="2" y="510"/>
      <point x="47" y="510" type="curve" smooth="yes"/>
      <point x="2409" y="510" type="line" smooth="yes"/>
      <point x="2454" y="510"/>
      <point x="2472" y="530"/>
      <point x="2472" y="582" type="curve" smooth="yes"/>
      <point x="2472" y="634"/>
      <point x="2454" y="654"/>
      <point x="2409" y="654" type="curve" smooth="yes"/>
    </contour>
  </outline>
</glyph>
<glyph name="emdash.alt3" format="1">
  <advance width="2456"/>
  <outline>
    <contour>
      <point x="347" y="654" type="line" smooth="yes"/>
      <point x="302" y="654"/>
      <point x="284" y="634"/>
      <point x="284" y="582" type="curve" smooth="yes"/>
      <point x="284" y="530"/>
      <point x="302" y="510"/>
      <point x="347" y="510" type="curve" smooth="yes"/>
      <point x="2109" y="510" type="line" smooth="yes"/>
      <point x="2154" y="510"/>
      <point x="2172" y="530"/>
      <point x="2172" y="582" type="curve" smooth="yes"/>
      <point x="2172" y="634"/>
      <point x="2154" y="654"/>
      <point x="2109" y="654" type="curve" smooth="yes"/>
    </contour>
  </outline>
</glyph>
<glyph name="emdash.alt4" format="1">
  <advance width="1228"/>
  <outline>
    <contour>
      <point x="-167" y="654" type="line" smooth="yes"/>
      <point x="-212" y="654"/>
      <point x="-230" y="634"/>
      <point x="-230" y="582" type="curve" smooth="yes"/>
      <point x="-230" y="530"/>
      <point x="-212" y="510"/>
      <point x="-167" y="510" type="curve" smooth="yes"/>
      <point x="1395" y="510" type="line" smooth="yes"/>
      <point x="1440" y="510"/>
      <point x="1458" y="530"/>
      <point x="1458" y="582" type="curve" smooth="yes"/>
      <point x="1458" y="634"/>
      <point x="1440" y="654"/>
      <point x="1395" y="654" type="curve" smooth="yes"/>
    </contour>
  </outline>
</glyph>
<glyph name="grave.alt" format="1">
  <advance width="1228"/>
  <outline>
    <contour>
      <point x="434" y="1430" type="line" smooth="yes"/>
      <point x="404" y="1455"/>
      <point x="368" y="1450"/>
      <point x="313" y="1384" type="curve" smooth="yes"/>
      <point x="262" y="1321"/>
      <point x="269" y="1283"/>
      <point x="294" y="1270" type="curve" smooth="yes"/>
      <point x="732" y="1033" type="line" smooth="yes"/>
      <point x="759" y="1019"/>
      <point x="784" y="1025"/>
      <point x="802" y="1056" type="curve" smooth="yes"/>
      <point x="820" y="1086"/>
      <point x="816" y="1112"/>
      <point x="792" y="1132" type="curve" smooth="yes"/>
    </contour>
  </outline>
</glyph>
<glyph name="grave.case" format="1">
  <advance width="1228"/>
  <outline>
    <contour>
      <point x="391" y="1633" type="line" smooth="yes"/>
      <point x="357" y="1652"/>
      <point x="332" y="1654"/>
      <point x="290" y="1579" type="curve" smooth="yes"/>
      <point x="251" y="1508"/>
      <point x="263" y="1481"/>
      <point x="290" y="1472" type="curve" smooth="yes"/>
      <point x="771" y="1309" type="line" smooth="yes"/>
      <point x="796" y="1301"/>
      <point x="817" y="1318"/>
      <point x="826" y="1341" type="curve" smooth="yes"/>
      <point x="835" y="1364"/>
      <point x="830" y="1390"/>
      <point x="807" y="1403" type="curve" smooth="yes"/>
    </contour>
    <contour>
      <point x="614" y="1187" type="move" name="_top"/>
    </contour>
  </outline>
</glyph>
<glyph name="hungarumlaut.case" format="1">
  <advance width="1228"/>
  <outline>
    <contour>
      <point x="626" y="1664"/>
      <point x="585" y="1660"/>
      <point x="556" y="1633" type="curve" smooth="yes"/>
      <point x="315" y="1400" type="line" smooth="yes"/>
      <point x="295" y="1381"/>
      <point x="296" y="1353"/>
      <point x="323" y="1336" type="curve" smooth="yes"/>
      <point x="352" y="1318"/>
      <point x="382" y="1320"/>
      <point x="405" y="1336" type="curve" smooth="yes"/>
      <point x="706" y="1546" type="line" smooth="yes"/>
      <point x="738" y="1568"/>
      <point x="728" y="1597"/>
      <point x="673" y="1633" type="curve" smooth="yes"/>
    </contour>
    <contour>
      <point x="1006" y="1664"/>
      <point x="965" y="1660"/>
      <point x="936" y="1633" type="curve" smooth="yes"/>
      <point x="695" y="1400" type="line" smooth="yes"/>
      <point x="675" y="1381"/>
      <point x="676" y="1353"/>
      <point x="703" y="1336" type="curve" smooth="yes"/>
      <point x="732" y="1318"/>
      <point x="762" y="1320"/>
      <point x="785" y="1336" type="curve" smooth="yes"/>
      <point x="1086" y="1546" type="line" smooth="yes"/>
      <point x="1118" y="1568"/>
      <point x="1108" y="1597"/>
      <point x="1053" y="1633" type="curve" smooth="yes"/>
    </contour>
    <contour>
      <point x="614" y="1187" type="move" name="_top"/>
    </contour>
  </outline>
</glyph>
